<?xml version="1.0" standalone="no"?>
<!DOCTYPE svg PUBLIC "-//W3C//DTD SVG 1.1//EN" "http://www.w3.org/Graphics/SVG/1.1/DTD/svg11.dtd" >
<svg>
<metadata>
Created by FontForge 20110222 at Thu Sep 11 07:52:46 2014
 By Orthosie Webhosting
Copr.1994, David Berlow. Produced by The Font Bureau, Inc.
</metadata>
<defs>
<font id="EagleLightRegular" horiz-adv-x="854" >
  <font-face 
    font-family="EagleLightRegular"
    font-weight="500"
    font-stretch="normal"
    units-per-em="1000"
    panose-1="0 0 0 0 0 0 0 0 0 0"
    ascent="800"
    descent="-200"
    x-height="505"
    cap-height="678"
    bbox="-129.286 -224 1215 896.5"
    underline-thickness="20"
    underline-position="-123"
    unicode-range="U+0020-FB02"
  />
<missing-glyph horiz-adv-x="500" 
 />
    <glyph glyph-name=".notdef" horiz-adv-x="500" 
 />
    <glyph glyph-name=".null" horiz-adv-x="0" 
 />
    <glyph glyph-name="nonmarkingreturn" horiz-adv-x="333" 
 />
    <glyph glyph-name="space" unicode=" " horiz-adv-x="220" 
 />
    <glyph glyph-name="exclam" unicode="!" horiz-adv-x="199" 
d="M136 341q0 -36 -4 -108.5t-10 -94.5q-1 -6 -2.5 -7.5t-7.5 -1.5h-7q-9 0 -11 9q-6 22 -10 101t-4 101v342q0 10 6 10h45q5 0 5 -12v-339zM141 16q0 -16 -10 -16h-46q-7 0 -8.5 2t-1.5 13v39q0 9 1.5 11.5t8.5 2.5h46q7 0 8.5 -2t1.5 -12v-38z" />
    <glyph glyph-name="quotedbl" unicode="&#x22;" horiz-adv-x="292" 
d="M237 679q0 -19 -0.5 -76t-0.5 -68q0 -24 -6 -44t-11.5 -29t-8.5 -9q-2 0 -8 9.5t-12 30t-6 42.5q0 11 -0.5 68.5t-0.5 75.5q0 2 3 4t9.5 3.5t13.5 1.5q28 0 28 -9zM127 679q0 -19 -0.5 -76t-0.5 -68q0 -24 -6 -44t-11.5 -29t-8.5 -9q-2 0 -8 9.5t-12 30t-6 42.5
q0 11 -0.5 68.5t-0.5 75.5q0 2 3 4t9.5 3.5t13.5 1.5q28 0 28 -9z" />
    <glyph glyph-name="numbersign" unicode="#" horiz-adv-x="557" 
d="M552 438q0 -4 -6 -4h-124l-28 -175h122q7 0 7 -2v-42q0 -4 -6 -4h-131q-28 -182 -32 -198q-2 -8 -9 -8h-35q-6 0 -6 10l33 196h-161q-28 -182 -32 -198q-2 -8 -9 -8h-35q-6 0 -6 10l32 196h-112q-8 0 -8 8v33q0 7 9 7h119l27 175h-117q-8 0 -8 8v33q0 2 3.5 4.5t6.5 2.5
h121q26 151 31 181q1 7 3 7h44q3 0 3 -6l-31 -182h160q26 149 31 181q1 7 4 7h43q3 0 3 -6l-31 -182h118q7 0 7 -2v-42zM372 434h-160l-28 -175h160z" />
    <glyph glyph-name="dollar" unicode="$" horiz-adv-x="624" 
d="M570 182q0 -184 -212 -197l-16 -1v-60h-49v60q-84 3 -143 40q-68 42 -89 108q-5 15 4 18q22 9 37 13q9 2 11 -5q42 -116 180 -123v284l-25 5q-85 17 -136.5 60.5t-51.5 112.5q0 79 50 131t142 61q14 2 21 2v34h49v-34q68 -5 113 -30q74 -39 103 -120q3 -10 -6 -16
q-12 -9 -24.5 -12.5t-16.5 2.5q-25 66 -77 97q-39 24 -92 28v-273l26 -2q92 -9 147 -56t55 -127zM293 374v266q-81 -5 -120 -41t-39 -93q0 -101 138 -128q14 -3 21 -4zM516 174q0 116 -152 136q-15 2 -22 3v-278q174 9 174 139z" />
    <glyph glyph-name="percent" unicode="%" horiz-adv-x="825" 
d="M801 174q0 -78 -51.5 -129.5t-133.5 -51.5q-84 0 -138.5 51.5t-54.5 129.5q0 77 54 130t136 53q84 0 136 -52.5t52 -130.5zM710 655q-149 -176 -335 -407.5t-196 -253.5q-14 1 -30.5 13t-15.5 22q123 141 312.5 376t222.5 281q9 -6 42 -31zM401 497q0 -78 -52 -129.5
t-135 -51.5q-82 0 -136.5 52.5t-54.5 128.5q0 77 53.5 129t136.5 52q84 0 136 -51.5t52 -129.5zM754 170q0 57 -38 100t-103 43t-104 -43.5t-39 -99.5t37 -96t106 -40q65 0 103 40.5t38 95.5zM352 497q0 57 -38 99t-103 42t-103 -42t-38 -99t36 -96.5t105 -39.5
q66 0 103.5 40t37.5 96z" />
    <glyph glyph-name="ampersand" unicode="&#x26;" horiz-adv-x="633" 
d="M603 0h-54q-47 54 -79 93q-2 -2 -4.5 -5.5t-5 -6t-5.5 -3.5q-88 -88 -221 -88q-90 0 -143 54t-53 133t43 129.5t121 87.5q13 6 19 9l-13 19q-38 55 -38 116q0 69 50.5 111.5t128.5 42.5q55 0 94 -19t82 -57q12 -11 5 -21q-5 -6 -20 -20q-8 -7 -20 5q-65 63 -145 63
q-67 0 -94.5 -33.5t-27.5 -70.5q0 -59 59 -133q147 -187 185 -234q38 46 96 161h2.5t7 -2.5t9 -4.5t9 -5t8.5 -4q4 -2 5 -3.5t0.5 -4.5t-4.5 -12q-43 -97 -99 -167q23 -28 55.5 -66.5t42.5 -50.5q11 -13 4 -13zM436 134q-126 155 -186 231q-81 -36 -120.5 -79t-39.5 -102
q0 -62 42 -103t115 -41q60 0 110 25.5t79 68.5z" />
    <glyph glyph-name="quotesingle" unicode="'" horiz-adv-x="198" 
d="M127 679q0 -19 -0.5 -76t-0.5 -68q0 -24 -6 -44t-11.5 -29t-8.5 -9q-2 0 -8 9.5t-12 30t-6 42.5q0 11 -0.5 68.5t-0.5 75.5q0 2 3 4t9.5 3.5t13.5 1.5q28 0 28 -9z" />
    <glyph glyph-name="parenleft" unicode="(" horiz-adv-x="283" 
d="M225 695q-120 -218 -120 -413q0 -185 119 -423q2 -8 -8 -14q-15 -8 -18 -4q-71 114 -109.5 215t-38.5 226q0 225 150 434q3 3 16 -5t9 -16z" />
    <glyph glyph-name="parenright" unicode=")" horiz-adv-x="283" 
d="M230 275q0 -231 -147 -434q-2 -4 -16 5q-13 8 -7 21q115 210 115 408q0 179 -122 423q-2 8 8 14q15 8 18 4q73 -117 112 -217t39 -224z" />
    <glyph glyph-name="asterisk" unicode="*" horiz-adv-x="426" 
d="M396 516q2 -2 -2 -4l-143 -51l82 -130q2 -3 -2 -7q-11 -13 -25 -18q-2 -2 -4 1l-89 121l-88 -121q-2 -3 -5 -1q-15 9 -24 19q-3 3 -1 7l80 129l-144 55q-1 0 -1 3l4.5 13.5t3.5 11.5q1 3 6 3l143 -38l10 150q0 4 4 4h26q5 0 5 -4l7 -151l145 37q3 1 5 -2q5 -14 7 -27z
" />
    <glyph glyph-name="plus" unicode="+" horiz-adv-x="516" 
d="M477 311q0 -8 -12 -8h-181v-189q0 -9 -2 -11.5t-10 -2.5h-26q-9 0 -9 14v189h-182q-10 0 -12 1.5t-2 7.5v27q0 8 3 10t11 2h182v191q0 10 9 10h26q8 0 10 -2t2 -9v-190h181q7 0 9.5 -2.5t2.5 -9.5v-28z" />
    <glyph glyph-name="comma" unicode="," horiz-adv-x="130" 
d="M111 67q0 -9 -2 -13q-12 -23 -32.5 -63.5t-31.5 -62.5q-2 -4 -9 -4q-8 0 -8 7v134q0 10 5 10h76q2 0 2 -8z" />
    <glyph glyph-name="hyphen" unicode="-" horiz-adv-x="413" 
d="M356 333q0 -8 -2 -10t-10 -2h-273q-9 0 -11.5 2t-2.5 10v24q0 11 14 11h273q8 0 10 -2t2 -10v-23z" />
    <glyph glyph-name="period" unicode="." horiz-adv-x="137" 
d="M103 13q0 -8 -2 -10.5t-11 -2.5h-50q-8 0 -10 2t-2 10v53q0 10 11 10h55q7 0 8 -1.5t1 -9.5v-51z" />
    <glyph glyph-name="slash" unicode="/" horiz-adv-x="370" 
d="M358 675q-161 -349 -320 -686q-6 -12 -11 -9q-27 11 -32 16t-2 11q31 69 89.5 194t130.5 279t101 216q6 14 14 11l29 -13q5 -4 5.5 -6.5t-4.5 -12.5z" />
    <glyph glyph-name="zero" unicode="0" horiz-adv-x="678" 
d="M632 337q0 -175 -81.5 -264.5t-211.5 -89.5q-140 0 -216.5 88t-76.5 266q0 176 81 265.5t212 89.5q133 0 213 -89.5t80 -265.5zM576 337q0 143 -61 224t-176 81q-110 0 -173.5 -82.5t-63.5 -222.5q0 -304 237 -304q113 0 175 80t62 224z" />
    <glyph glyph-name="one" unicode="1" horiz-adv-x="205" 
d="M129 14q0 -8 -0.5 -10t-2 -3t-7.5 -1h-38q-5 0 -5 14v609q0 14 5 17t19 12.5t26 15.5q3 -5 3 -15v-639z" />
    <glyph glyph-name="two" unicode="2" horiz-adv-x="598" 
d="M535 10q0 -7 -2 -8.5t-9 -1.5h-448q-12 0 -15 17q-2 15 5 20q63 47 234 203q95 88 133.5 147t38.5 112q0 63 -43 103t-118 40q-152 0 -198 -146q-4 -12 -13 -7q-20 10 -32 18q-5 4 -2 15q30 84 94 127t153 43q95 0 154.5 -52t59.5 -141q0 -68 -44 -133t-150 -163
q-99 -91 -171 -152h361q8 0 10 -1.5t2 -7.5v-32z" />
    <glyph glyph-name="three" unicode="3" horiz-adv-x="606" 
d="M568 182q0 -85 -67 -143t-193 -58q-111 0 -179.5 48.5t-85.5 118.5q-3 12 6 15q5 2 15 5.5t17 5.5q10 3 15 -12q18 -61 78 -96t134 -35q101 0 152.5 41t51.5 112q0 154 -244 156q-12 0 -12 22q0 24 11 24q211 6 211 133q0 51 -46.5 86t-124.5 35q-153 0 -184 -122
q-3 -11 -12 -8t-29 14q-8 5 -7 11q13 64 72 109.5t161 45.5q101 0 163 -48t62 -126q0 -64 -41.5 -101.5t-109.5 -46.5q77 -8 131.5 -56t54.5 -130z" />
    <glyph glyph-name="four" unicode="4" horiz-adv-x="588" 
d="M561 153q0 -10 -7 -10h-87v-136q0 -11 -1 -12.5t-8 -1.5h-34q-7 0 -8.5 2t-1.5 12v136h-377q-18 0 -18 7v25q0 9 5 15q32 39 93 111.5t112 133t100.5 120.5t77.5 93t25 30q9 10 14 10h15q6 0 6 -7v-488h86q8 0 8 -11v-29zM414 192v391l-323 -391h323z" />
    <glyph glyph-name="five" unicode="5" horiz-adv-x="596" 
d="M555 240q0 -110 -71.5 -183.5t-187.5 -73.5q-98 0 -163 44.5t-97 113.5q-5 10 4 16q20 12 32 18q7 3 12 -7q67 -135 215 -135q89 0 145 60t56 145q0 83 -51.5 142.5t-138.5 59.5q-138 0 -206 -147q-2 -4 -21 2q-15 5 -15 11q1 12 13.5 141t19.5 219q2 12 17 12h383
q8 0 8 -8v-38q0 -7 -9 -7h-350l-22 -223q63 87 187 87q105 0 172.5 -70t67.5 -179z" />
    <glyph glyph-name="six" unicode="6" horiz-adv-x="630" 
d="M584 229q0 -108 -73.5 -177t-187.5 -69q-116 0 -193.5 83t-77.5 234q0 194 75.5 293t200.5 99q151 0 222 -120q7 -10 -2 -16l-28 -16q-10 -4 -17 7q-27 47 -68 71t-107 24q-103 0 -161.5 -87t-58.5 -210q20 54 81.5 94t141.5 40q113 0 183 -70.5t70 -179.5zM528 229
q0 88 -58.5 144.5t-141.5 56.5q-91 0 -150.5 -58t-59.5 -143q0 -78 58 -137.5t147 -59.5q88 0 146.5 57t58.5 140z" />
    <glyph glyph-name="seven" unicode="7" horiz-adv-x="470" 
d="M456 636q-19 -33 -54 -105.5t-90 -229.5t-76 -295q-3 -16 -18 -16h-26q-11 0 -8 19q26 134 68.5 265.5t65 184t75.5 170.5h-372q-7 0 -10.5 2t-2.5 7q6 28 8 33q4 7 17 7h422q2 0 2.5 -19.5t-1.5 -22.5z" />
    <glyph glyph-name="eight" unicode="8" horiz-adv-x="570" 
d="M553 180q0 -88 -72 -142.5t-193 -54.5q-119 0 -192 57t-73 140q0 137 158 179q-123 31 -123 154q0 78 65.5 128.5t164.5 50.5q107 0 168.5 -49t61.5 -130q0 -118 -123 -154q71 -13 114.5 -59.5t43.5 -119.5zM463 513q0 61 -51 95t-124 34t-124 -33.5t-51 -95.5
q0 -60 48.5 -96.5t126.5 -36.5q79 0 127 36t48 97zM497 182q0 68 -62.5 109.5t-146.5 41.5q-85 0 -147 -41.5t-62 -109.5q0 -69 63 -109t146 -40q86 0 147.5 36.5t61.5 112.5z" />
    <glyph glyph-name="nine" unicode="9" horiz-adv-x="599" 
d="M564 370q0 -193 -75.5 -290t-200.5 -97q-80 0 -134 29t-96 84q-7 8 1 15q9 7 33 20q9 5 16 -6q62 -94 180 -94q101 0 160.5 83t59.5 211q-54 -134 -228 -134q-113 0 -180.5 72t-67.5 182q0 103 73.5 174.5t187.5 71.5q115 0 193 -84.5t78 -236.5zM498 441q0 79 -58 140
t-147 61q-91 0 -148 -58t-57 -139q0 -93 53 -149t139 -56q97 0 157.5 57.5t60.5 143.5z" />
    <glyph glyph-name="colon" unicode=":" horiz-adv-x="140" 
d="M98 363q0 -8 -2 -10.5t-11 -2.5h-40q-7 0 -9.5 2t-2.5 10v43q0 10 11 10h45q7 0 8 -1.5t1 -9.5v-41zM98 13q0 -8 -2 -10.5t-11 -2.5h-40q-7 0 -9.5 2t-2.5 10v43q0 10 11 10h45q7 0 8 -1.5t1 -7.5v-2v-41z" />
    <glyph glyph-name="semicolon" unicode=";" horiz-adv-x="140" 
d="M98 363q0 -13 -13 -13h-40q-7 0 -9.5 2t-2.5 10v43q0 10 11 10h45q7 0 8 -1.5t1 -9.5v-41zM106 57q0 -8 -2 -13l-54 -133q-2 -4 -9 -4q-8 0 -8 7v141q0 10 5 10h66q2 0 2 -8z" />
    <glyph glyph-name="less" unicode="&#x3c;" horiz-adv-x="412" 
d="M337 91q0 -5 -6 -5q-5 0 -8 3q-197 163 -252 211q-5 5 -5 8q0 4 5 9q148 119 252 193q2 2 9 0q5 -2 5 -7v-31q0 -9 -8 -15q-114 -93 -193 -148q77 -67 193 -168q8 -8 8 -15v-35z" />
    <glyph glyph-name="equal" unicode="=" horiz-adv-x="424" 
d="M373 415q0 -4 -6 -4h-312q-8 0 -8 8v36q0 7 10 7h309q7 0 7 -7v-40zM373 197q0 -4 -6 -4h-312q-8 0 -8 8v36q0 7 10 7h309q7 0 7 -9v-38z" />
    <glyph glyph-name="greater" unicode="&#x3e;" horiz-adv-x="412" 
d="M359 308q0 -3 -5 -8q-135 -117 -252 -211q-4 -4 -9 -3q-5 2 -5 9v31q0 9 8 15q46 38 115 98t79 69q-19 13 -87.5 67t-106.5 82q-8 6 -8 15v28q0 8 4 11t10 -1q136 -99 252 -193q5 -5 5 -9z" />
    <glyph glyph-name="question" unicode="?" horiz-adv-x="430" 
d="M414 515q0 -29 -7 -54.5t-23 -49t-25 -36t-32 -35t-25 -25.5q-30 -32 -42.5 -49t-24 -48.5t-11.5 -71.5q0 -9 -4 -9h-44q-4 0 -4 7q0 97 79 185q6 6 35.5 36.5t40.5 45t24 44t13 59.5q0 57 -40 94.5t-103 37.5q-58 0 -100 -39.5t-59 -109.5q-1 -8 -10 -5q-8 4 -17 7.5
t-13 5.5q-6 3 -4 13q17 80 73.5 129t129.5 49q78 0 135.5 -47.5t57.5 -133.5zM231 16q0 -16 -10 -16h-46q-7 0 -8.5 2t-1.5 13v39q0 9 1.5 11.5t8.5 2.5h46q7 0 8.5 -2t1.5 -12v-38z" />
    <glyph glyph-name="at" unicode="@" horiz-adv-x="698" 
d="M675 372q0 -121 -49.5 -184t-106.5 -63q-33 0 -51.5 17.5t-24.5 63.5q-44 -84 -136 -84q-56 0 -100 48.5t-44 131.5q0 58 19.5 104.5t49.5 72t59.5 38.5t54.5 13q57 0 101 -38l46 16l-23 -222q-13 -116 55 -116q38 0 72 59.5t34 133.5q0 150 -75.5 222.5t-190.5 72.5
q-123 0 -209.5 -94.5t-86.5 -246.5q0 -149 76 -237t218 -88q100 0 150 53q11 8 15.5 5t12.5 -19q7 -19 -1 -25q-77 -57 -175 -57q-154 0 -248 96t-94 272q0 161 95.5 272t244.5 111q143 0 227.5 -92t84.5 -236zM435 453q-38 33 -89 33t-94 -52.5t-43 -134.5q0 -45 25.5 -91
t78.5 -46q40 0 66.5 31.5t34.5 93.5z" />
    <glyph glyph-name="A" unicode="A" horiz-adv-x="671" 
d="M674 12q6 -12 -6 -12h-43q-6 0 -11 8l-74 155h-409l-72 -151q-7 -12 -17 -12h-35q-9 0 -10.5 2.5t2.5 11.5q214 446 329 674q4 7 8 7t8 -7q231 -466 330 -676zM518 211q-97 206 -160 337q-20 43 -22 43t-22 -42l-161 -338h365z" />
    <glyph glyph-name="B" unicode="B" horiz-adv-x="662" 
d="M602 183q0 -183 -220 -183h-306q-8 0 -8 9v659q0 10 10 10h259q100 0 163 -46.5t63 -129.5q0 -127 -98 -155q58 -9 97.5 -55.5t39.5 -108.5zM507 498q0 59 -43.5 94.5t-119.5 35.5h-220v-262h237q76 0 111 32.5t35 99.5zM545 183q0 60 -47 97.5t-125 37.5h-249v-268h250
q171 0 171 133z" />
    <glyph glyph-name="C" unicode="C" horiz-adv-x="753" 
d="M696 167q-97 -184 -301 -184q-157 0 -256 100t-99 254q0 148 101.5 251.5t251.5 103.5q119 0 197 -52.5t106 -130.5q6 -14 -2 -17l-32 -11q-9 -3 -14 9q-27 65 -92.5 108.5t-163.5 43.5q-125 0 -209.5 -89t-84.5 -216q0 -128 85 -216t211 -88q98 0 158 43.5t100 112.5
q5 9 8 10t9 -2l26 -15q7 -5 1 -15z" />
    <glyph glyph-name="D" unicode="D" horiz-adv-x="710" 
d="M670 344q0 -150 -90.5 -247t-233.5 -97h-274q-4 0 -4 9v659q0 10 4 10h280q135 0 226.5 -87t91.5 -247zM611 344q0 136 -75.5 210t-194.5 74h-217v-578h215q121 0 196.5 83t75.5 211z" />
    <glyph glyph-name="E" unicode="E" horiz-adv-x="572" 
d="M525 12q0 -9 -1.5 -10.5t-9.5 -1.5h-437q-6 0 -7.5 2.5t-1.5 11.5v654v3q0 7 5 7h438q6 0 7.5 -2t1.5 -9v-25q0 -14 -9 -14h-387v-258h383q6 0 6 -14v-20q0 -16 -6 -16h-383v-270h390q8 0 9.5 -1.5t1.5 -11.5v-25z" />
    <glyph glyph-name="F" unicode="F" horiz-adv-x="523" 
d="M509 640q0 -12 -9 -12h-376v-281h337q10 0 12.5 -2t2.5 -8v-30q0 -10 -15 -10h-337v-283q0 -10 -0.5 -12t-6.5 -2h-43q-5 0 -5.5 1.5t-0.5 12.5v655q0 2 3 5.5t4 3.5h424q10 0 10 -10v-28z" />
    <glyph glyph-name="G" unicode="G" horiz-adv-x="759" 
d="M703 0q0 -10 -10 -10q-8 0 -15 7l-64 65q-101 -79 -219 -79q-157 0 -256 102t-99 252q0 148 102.5 251.5t252.5 103.5q110 0 181.5 -44.5t109.5 -111.5q6 -11 -4 -15l-36 -15q-8 -3 -12 6q-26 54 -89.5 92.5t-152.5 38.5q-126 0 -210.5 -89.5t-84.5 -217.5
q0 -127 86 -216.5t211 -89.5q90 0 159 44t100 117q5 9 8 9h36q6 0 6 -11v-189z" />
    <glyph glyph-name="H" unicode="H" horiz-adv-x="683" 
d="M615 9q0 -7 -1.5 -8t-10.5 -1h-34q-10 0 -10 9v333h-435v-333q0 -4 -0.5 -5.5t-2.5 -2.5t-7 -1h-36q-7 0 -8.5 1.5t-1.5 9.5v654q0 9 2 11t9 2h36q6 0 7.5 -2t1.5 -11v-271h435v270q0 9 2 11.5t8 2.5h35q8 0 9.5 -2t1.5 -12v-655z" />
    <glyph glyph-name="I" unicode="I" horiz-adv-x="238" 
d="M147 9q0 -6 -1.5 -7.5t-8.5 -1.5h-36q-10 0 -10 9v657q0 8 2 10t9 2h37q8 0 8 -12v-657z" />
    <glyph glyph-name="J" unicode="J" horiz-adv-x="257" 
d="M198 79q0 -41 -27 -66.5t-68 -25.5q-57 0 -83 15q-7 5 -7 8l5 41q0 7 9 3q38 -17 70 -17q45 0 45 57v573q0 7 1.5 9t8.5 2h36q7 0 8.5 -2t1.5 -9v-588z" />
    <glyph glyph-name="K" unicode="K" horiz-adv-x="626" 
d="M617 11q8 -11 -7 -11h-46q-9 0 -18 12l-256 341l-166 -187v-157q0 -6 -2 -7.5t-9 -1.5h-35q-10 0 -10 9v660q0 9 9 9h38q9 0 9 -10v-430l377 433q9 7 17 7h42q5 0 7.5 -4t-0.5 -7l-236 -269z" />
    <glyph glyph-name="L" unicode="L" horiz-adv-x="489" 
d="M477 11q0 -8 -1 -9.5t-7 -1.5h-394q-7 0 -7 8v662q0 8 7 8h44q5 0 5 -7v-621h344q6 0 7.5 -1t1.5 -8v-30z" />
    <glyph glyph-name="M" unicode="M" horiz-adv-x="766" 
d="M735 9q0 -5 -1.5 -7t-8.5 -2h-42q-6 0 -6 9l-30 540l-249 -368q-3 -5 -9 -5q-7 0 -10 5l-249 363l-29 -530q-1 -10 -2.5 -12t-6.5 -2h-42q-7 0 -7 13l40 661q0 5 4.5 9t9.5 4q8 0 15 -10l281 -417l278 417q6 9 14 9q12 0 12 -12z" />
    <glyph glyph-name="N" unicode="N" horiz-adv-x="683" 
d="M615 -1q0 -9 -11 -9q-9 0 -15 8l-465 560v-549q0 -9 -7 -9h-41q-8 0 -8 10v668q0 8 9 8q8 0 15 -7q29 -32 146 -172.5t219 -264.5l102 -125v552q0 6 2 7.5t7 1.5h39q8 0 8 -12v-667z" />
    <glyph glyph-name="O" unicode="O" horiz-adv-x="790" 
d="M750 337q0 -148 -102 -251t-253 -103t-253 103t-102 251t102.5 251.5t252.5 103.5t252.5 -103.5t102.5 -251.5zM692 337q0 126 -86 215.5t-211 89.5t-211 -89.5t-86 -215.5t86 -215t211 -89t211 89t86 215z" />
    <glyph glyph-name="P" unicode="P" horiz-adv-x="591" 
d="M559 470q0 -96 -66.5 -152t-177.5 -56h-191v-253q0 -9 -7 -9h-42q-7 0 -7 9v660q0 5 1.5 7t2.5 2h3h260q93 0 158.5 -57t65.5 -151zM504 470q0 72 -50.5 115t-121.5 43h-208v-316h210q71 0 120.5 42t49.5 116z" />
    <glyph glyph-name="Q" unicode="Q" horiz-adv-x="789" 
d="M750 335q0 -75 -31.5 -143.5t-69.5 -97.5v-107q0 -13 -3 -15q-1 0 -20 6l-89 39q-16 -12 -59.5 -22t-82.5 -10q-151 0 -253 101t-102 249t102.5 252.5t252.5 104.5t252.5 -104.5t102.5 -252.5zM694 335q0 126 -87 216.5t-212 90.5t-211 -90.5t-86 -216.5t86 -214t211 -88
q127 0 213 85.5t86 216.5z" />
    <glyph glyph-name="R" unicode="R" horiz-adv-x="606" 
d="M603 6q0 -6 -11 -6h-40q-9 0 -14 8l-184 257h-230v-256q0 -9 -7 -9h-42q-7 0 -7 9v660q0 5 1.5 7t2.5 2h3h260q101 0 162.5 -61.5t61.5 -149.5q0 -71 -39.5 -120.5t-107.5 -71.5q116 -159 186 -257q5 -8 5 -12zM506 466q0 73 -50 117.5t-124 44.5h-208v-314h203
q85 0 132 42t47 110z" />
    <glyph glyph-name="S" unicode="S" horiz-adv-x="611" 
d="M560 177q0 -96 -64 -145t-180 -49q-98 0 -167.5 39t-97.5 110q-4 11 -3.5 13.5t7.5 4.5l37 13q8 4 11 -5q21 -59 76.5 -92.5t132.5 -33.5q95 0 144.5 34.5t49.5 98.5t-45 95.5t-141 52.5q-4 1 -19 4t-19 4q-104 24 -158 66t-54 120q0 84 62.5 134.5t176.5 50.5
q95 0 155 -42t84 -109q4 -12 -6 -16l-30 -13q-8 -5 -11 3q-47 128 -194 128q-93 0 -138 -35t-45 -94q0 -58 45 -90.5t130 -50.5q18 -4 38 -8q50 -11 87.5 -24.5t69.5 -35t49 -54t17 -74.5z" />
    <glyph glyph-name="T" unicode="T" horiz-adv-x="544" 
d="M533 635q0 -7 -9 -7h-224v-619q0 -6 -1 -7.5t-6 -1.5h-39q-7 0 -8.5 1.5t-1.5 9.5v617h-225q-7 0 -7 7v33q0 7 1.5 8.5t6.5 1.5h505q6 0 7 -1.5t1 -8.5v-33z" />
    <glyph glyph-name="U" unicode="U" horiz-adv-x="644" 
d="M585 258q0 -130 -70.5 -202.5t-192.5 -72.5t-192.5 72.5t-70.5 203.5v412q0 5 1 6t6 1h42q5 0 6 -1t1 -7v-411q0 -226 207 -226t207 226v412q0 7 4 7h45q5 0 6 -1t1 -6v-413z" />
    <glyph glyph-name="V" unicode="V" horiz-adv-x="635" 
d="M631 660q-288 -652 -294 -664q-5 -11 -11 -11q-7 0 -11 11l-312 673q-2 7 -1.5 8t5.5 1h42q9 0 11 -6l266 -575l251 570q5 11 9 11h42q9 0 3 -18z" />
    <glyph glyph-name="W" unicode="W" horiz-adv-x="937" 
d="M934 665q-101 -271 -256 -675q-2 -5 -8 -5t-8 5l-193 545q-125 -355 -193 -546q-1 -4 -8 -4t-9 4l-256 675q-5 14 2 14h44q8 0 12 -11l208 -552l193 560q2 5 8 5t8 -5l197 -560l205 556q2 7 12 7h34q8 0 9.5 -2.5t-1.5 -10.5z" />
    <glyph glyph-name="X" unicode="X" horiz-adv-x="558" 
d="M562 8q3 -4 1.5 -6t-9.5 -2h-46q-9 0 -15 7l-215 285q-192 -244 -219 -281q-8 -11 -18 -11h-37q-15 0 -5 13l247 324q-177 244 -241 330q-8 11 8 11h43q9 0 15 -9l208 -292q169 233 212 292q7 9 16 9h41q13 0 6 -10l-245 -331q219 -285 253 -329z" />
    <glyph glyph-name="Y" unicode="Y" horiz-adv-x="569" 
d="M566 666l-254 -410v-243q0 -9 -1.5 -11t-9.5 -2h-37q-8 0 -8 11v245q-201 325 -255 412q-3 5 -1 7.5t12 2.5h36q8 0 14 -9l222 -358q179 288 222 355q8 12 13 12h40q14 0 7 -12z" />
    <glyph glyph-name="Z" unicode="Z" horiz-adv-x="544" 
d="M526 660l-441 -610h432q8 0 8 -11v-28q0 -11 -8 -11h-509q-5 0 -5.5 10t2.5 13l438 609h-404q-8 0 -10.5 1.5t-2.5 7.5v24q0 8 1.5 10.5t7.5 2.5h489q5 0 5 -7t-3 -11z" />
    <glyph glyph-name="bracketleft" unicode="[" horiz-adv-x="243" 
d="M240 -160q0 -6 -5 -6h-186q-5 0 -5 6v832q0 6 5 6h186q5 0 5 -6v-35q0 -5 -6 -5h-136v-748h136q6 0 6 -5v-39z" />
    <glyph glyph-name="backslash" unicode="\" horiz-adv-x="370" 
d="M363 -23q4 -10 -6 -17q-9 -7 -20 -10q-12 -3 -19 11q-189 412 -316 695q-5 12 0 16q9 5 28 14q4 2 6.5 1.5t4.5 -3.5t5 -10q252 -554 317 -697z" />
    <glyph glyph-name="bracketright" unicode="]" horiz-adv-x="243" 
d="M199 -160q0 -6 -5 -6h-186q-5 0 -5 6v39q0 5 6 5h136v744h-136q-6 0 -6 5v39q0 6 5 6h186q5 0 5 -6v-832z" />
    <glyph glyph-name="asciicircum" unicode="^" horiz-adv-x="384" 
d="M375 498q0 -7 -10 -7h-44l-131 155l-131 -155h-46q-8 0 -8 5t7 12q37 50 166 206q7 9 12 9q6 0 13 -10q50 -66 163 -201q9 -12 9 -14z" />
    <glyph glyph-name="underscore" unicode="_" horiz-adv-x="381" 
d="M399 -184q0 -6 -2.5 -7.5t-13.5 -1.5h-385q-8 0 -9.5 2t-1.5 10v21q0 9 2 11.5t9 2.5h385q16 0 16 -8v-30z" />
    <glyph glyph-name="grave" unicode="`" horiz-adv-x="400" 
d="M277 558q4 -6 -2 -9q-4 -2 -20 -2t-20 4q-15 15 -38 39t-45.5 48t-28.5 31q-8 8 -8 10q0 5 4 9q10 10 28 25q8 7 13 0q57 -75 117 -155z" />
    <glyph glyph-name="a" unicode="a" horiz-adv-x="576" 
d="M520 11q0 -11 -9 -11h-33q-8 0 -8 10v82q-22 -45 -74.5 -73.5t-117.5 -28.5q-107 0 -175.5 72.5t-68.5 185.5q0 121 65 194t174 73q64 0 115 -27.5t82 -75.5v84q0 9 7 9h35q8 0 8 -7v-487zM473 252q0 97 -57 157t-138 60q-86 0 -139 -57t-53 -160q0 -90 56.5 -152.5
t135.5 -62.5q92 0 143.5 59.5t51.5 155.5z" />
    <glyph glyph-name="b" unicode="b" horiz-adv-x="577" 
d="M543 258q0 -115 -67 -190.5t-175 -75.5q-142 0 -191 99l-17 -82q-1 -9 -11 -9h-20q-6 0 -6 11v674q0 7 6 7h37q5 0 6.5 -1.5t1.5 -7.5v-277q62 109 197 109q107 0 173 -67.5t66 -189.5zM491 253q0 105 -55.5 159.5t-139.5 54.5q-83 0 -137.5 -60.5t-54.5 -153.5
t50 -153.5t140 -60.5q80 0 138.5 62t58.5 152z" />
    <glyph glyph-name="c" unicode="c" horiz-adv-x="578" 
d="M531 118q-34 -63 -92.5 -99t-137.5 -36q-117 0 -192 74.5t-75 193.5q0 118 74 193.5t193 75.5q80 0 138 -35t88 -98q3 -8 -3 -12l-33 -18q-7 -4 -12 5q-55 109 -179 109q-92 0 -151.5 -63t-59.5 -157q0 -93 59.5 -156t151.5 -63q64 0 112.5 30t74.5 84q3 6 10 1l30 -18
q7 -4 4 -11z" />
    <glyph glyph-name="d" unicode="d" horiz-adv-x="577" 
d="M521 11q0 -11 -9 -11h-34q-8 0 -8 10v79q-21 -40 -75 -69.5t-119 -29.5q-106 0 -174 72.5t-68 185.5q0 120 66 193.5t178 73.5q124 0 192 -104v271q0 10 8 10h35q8 0 8 -8v-673zM472 252q0 97 -57 157t-139 60q-84 0 -137 -57.5t-53 -159.5q0 -91 56 -152.5t134 -61.5
q93 0 144.5 59t51.5 155z" />
    <glyph glyph-name="e" unicode="e" horiz-adv-x="562" 
d="M528 285q0 -32 -10 -46q-4 -5 -16 -5h-415q3 -86 61.5 -145t153.5 -59q78 0 134 54q4 4 8 -1q15 -16 24 -30q5 -7 2 -9q-76 -61 -170 -61q-122 0 -194 73.5t-72 194.5q0 118 70.5 193.5t188.5 75.5q73 0 128.5 -38t81 -90.5t25.5 -106.5zM476 282q-4 79 -54 135.5
t-130 56.5q-82 0 -140.5 -56t-63.5 -136h388z" />
    <glyph glyph-name="f" unicode="f" horiz-adv-x="235" 
d="M271 678q3 -3 -2 -11q-7 -14 -20 -29q-5 -4 -8 -1q-22 22 -55 22q-67 0 -67 -85v-63q0 -6 8 -6h98q5 0 5 -6v-35q0 -6 -7 -6h-104v-451q0 -7 -6 -7h-40q-5 0 -5 8v450h-54q-5 0 -5 6v35q0 6 5 6h54v72q0 60 34 96t87 36q51 0 82 -31z" />
    <glyph glyph-name="g" unicode="g" horiz-adv-x="565" 
d="M521 108q0 -141 -64 -221.5t-181 -80.5q-127 0 -199 72q-6 6 -1 13q16 20 25 29q5 6 11 0q65 -67 159 -67q105 0 150.5 67t48.5 193q-23 -52 -75 -80t-122 -28q-110 0 -174.5 69.5t-64.5 188.5q0 113 66 182.5t176 69.5q66 0 117.5 -29.5t76.5 -76.5v89q0 7 8 7h36
q7 0 7 -8v-389zM472 256q0 96 -51.5 154.5t-144.5 58.5q-82 0 -136 -55t-54 -145q0 -102 53 -159t137 -57t140 53.5t56 149.5z" />
    <glyph glyph-name="h" unicode="h" horiz-adv-x="518" 
d="M466 14q0 -14 -9 -14h-35q-8 0 -8 13v320q0 63 -34 98t-98 35q-63 0 -110.5 -35.5t-63.5 -105.5v-315q0 -10 -8 -10h-36q-6 0 -7 2t-1 11v670q0 9 6 9h38q8 0 8 -9v-267q23 46 73 72.5t106 26.5q80 0 129.5 -43t49.5 -136v-322z" />
    <glyph glyph-name="i" unicode="i" horiz-adv-x="184" 
d="M121 581q0 -8 -9 -8h-43q-6 0 -6 9v40q0 8 7 8h41q10 0 10 -8v-41zM118 10q0 -7 -1.5 -8.5t-7.5 -1.5h-33q-5 0 -6.5 0.5t-2.5 3t-1 9.5v484q0 8 8 8h34q7 0 8.5 -1.5t1.5 -6.5v-487z" />
    <glyph glyph-name="j" unicode="j" horiz-adv-x="199" 
d="M138 582q0 -9 -7 -9h-42q-8 0 -8 9v39q0 9 8 9h42q7 0 7 -9v-39zM135 -25q0 -62 -34 -97t-87 -35q-51 0 -82 31q-3 3 2 11q7 14 20 29q4 4 8 1q22 -22 55 -22q67 0 67 85v516q0 7 1.5 9t7.5 2h32q7 0 8.5 -2t1.5 -8v-520z" />
    <glyph glyph-name="k" unicode="k" horiz-adv-x="466" 
d="M474 11q8 -11 -4 -11h-46q-9 0 -19 15l-199 262l-98 -110v-157q0 -10 -7 -10h-37q-8 0 -8 13v670q0 9 6 9h38q5 0 6.5 -1.5t1.5 -8.5v-444q61 66 231 260q6 7 13 7h46q5 0 5 -2q0 -1 -3 -5l-156 -180q191 -254 230 -307z" />
    <glyph glyph-name="l" unicode="l" horiz-adv-x="184" 
d="M118 10q0 -7 -1.5 -8.5t-6.5 -1.5h-36q-8 0 -8 10v673q0 7 1.5 8t8.5 1h33q6 0 7.5 -1t1.5 -8v-673z" />
    <glyph glyph-name="m" unicode="m" horiz-adv-x="858" 
d="M806 14q0 -10 -1 -12t-6 -2h-37q-8 0 -8 10v312q0 65 -36 104.5t-98 39.5q-59 0 -104.5 -39t-58.5 -101v-312q0 -10 -1 -12t-6 -2h-37q-8 0 -8 10v312q0 65 -35 104.5t-98 39.5q-59 0 -105.5 -39.5t-58.5 -102.5v-314q0 -10 -7 -10h-37q-4 0 -5.5 0.5t-2 3t-0.5 9.5v482
q0 10 7 10h32q9 0 10.5 -1t1.5 -8v-82q22 47 69 74t101 27q126 0 170 -111q61 111 179 111q80 0 130 -47.5t50 -136.5v-317z" />
    <glyph glyph-name="n" unicode="n" horiz-adv-x="518" 
d="M466 14q0 -14 -7 -14h-36q-4 0 -5.5 0.5t-2.5 2.5t-1 7v322q0 134 -133 134q-67 0 -113.5 -38.5t-59.5 -101.5v-316q0 -10 -4 -10h-41q-5 0 -6 2t-1 10v486q0 7 7 7h35q6 0 7.5 -1t1.5 -8v-78q27 46 74.5 71.5t101.5 25.5q82 0 132.5 -43t50.5 -131v-327z" />
    <glyph glyph-name="o" unicode="o" horiz-adv-x="602" 
d="M568 251q0 -118 -74.5 -193t-192.5 -75q-116 0 -191.5 75t-75.5 193q0 117 74.5 193t192.5 76t192.5 -74.5t74.5 -194.5zM515 251q0 93 -61.5 157.5t-152.5 64.5q-92 0 -153 -63t-61 -159q0 -92 61.5 -156.5t152.5 -64.5q93 0 153.5 63t60.5 158z" />
    <glyph glyph-name="p" unicode="p" horiz-adv-x="577" 
d="M543 260q0 -120 -68 -194.5t-182 -74.5q-120 0 -186 101v-246q0 -12 -8 -12h-37q-6 0 -6 10v653q0 8 6 8h39q6 0 6 -10v-80q25 45 74 72.5t115 27.5q109 0 178 -70t69 -185zM491 258q0 90 -57.5 149.5t-137.5 59.5q-92 0 -142 -57.5t-50 -153.5q0 -97 56 -157.5
t136 -60.5q86 0 140.5 59t54.5 161z" />
    <glyph glyph-name="q" unicode="q" horiz-adv-x="577" 
d="M521 -156q0 -10 -9 -10h-33q-9 0 -9 12v249q-70 -104 -200 -104q-103 0 -169.5 72.5t-66.5 195.5q0 111 67.5 183.5t173.5 72.5q135 0 192 -96q3 -3 13 76q2 10 12 10h23q6 0 6 -8v-653zM472 256q0 92 -50.5 151.5t-141.5 59.5q-81 0 -137.5 -60t-56.5 -151
q0 -105 54.5 -161.5t135.5 -56.5q84 0 140 62.5t56 155.5z" />
    <glyph glyph-name="r" unicode="r" horiz-adv-x="379" 
d="M390 406q-16 -21 -28 -25q-5 -2 -18 -2q-9 43 -31.5 65.5t-68.5 22.5q-49 0 -86.5 -35.5t-49.5 -95.5v-326q0 -10 -7 -10h-38q-7 0 -7 9v488q0 6 1 7t7 1h36q7 0 7 -8v-67q44 85 146 85q54 0 91.5 -31t45.5 -78z" />
    <glyph glyph-name="s" unicode="s" horiz-adv-x="464" 
d="M427 135q0 -75 -50 -113.5t-137 -38.5q-147 0 -198 118q-5 12 4 16l29 12q8 4 10.5 3t5.5 -8q40 -94 150 -94q65 0 99 24t34 69q0 40 -28 66.5t-114 44.5q-93 19 -132.5 51t-39.5 100q0 63 46 100t132 37q134 0 180 -113q4 -11 -8 -16l-25 -12q-9 -4 -15 10
q-35 84 -134 84q-65 0 -94.5 -24.5t-29.5 -64.5t30.5 -63t103.5 -37q181 -35 181 -151z" />
    <glyph glyph-name="t" unicode="t" horiz-adv-x="284" 
d="M277 21q2 -9 -6 -12q-43 -19 -81 -19q-46 0 -78.5 33t-32.5 87v346h-62q-7 0 -7 10v31q0 8 6 8h63v119q0 10 8 10h32q8 0 9.5 -2t1.5 -10v-117h99q10 0 10 -4v-36q0 -9 -11 -9h-98v-338q0 -78 66 -78q37 0 64 18q3 2 5 -0.5t4 -8.5q1 -2 2.5 -8t3 -11t2.5 -9z" />
    <glyph glyph-name="u" unicode="u" horiz-adv-x="518" 
d="M463 9q0 -9 -6 -9h-36q-6 0 -7.5 1.5t-1.5 10.5v76q-20 -41 -71.5 -69.5t-105.5 -28.5q-80 0 -129.5 48.5t-49.5 138.5v317q0 7 1 9t6 2h36q5 0 6.5 -1.5t1.5 -9.5v-308q0 -66 35.5 -106.5t98.5 -40.5q59 0 108.5 42t62.5 104v310q0 10 6 10h36q7 0 8 -1.5t1 -9.5v-485z
" />
    <glyph glyph-name="v" unicode="v" horiz-adv-x="485" 
d="M483 499q-180 -397 -230 -501q-5 -10 -9 -10q-5 0 -10 10q-103 211 -233 500q-3 7 3 7h49q4 0 6 -4q174 -387 186 -411q29 68 185 410q2 5 8 5h42q5 0 3 -6z" />
    <glyph glyph-name="w" unicode="w" horiz-adv-x="733" 
d="M733 500q-99 -259 -205 -506q-4 -11 -9 -11q-7 0 -11 11q-88 235 -141 388q-4 -12 -32 -91t-58 -162.5t-49 -134.5q-3 -9 -12 -9q-5 0 -9 9q-91 217 -206 505q-2 6 3 6h41q6 0 12 -13q105 -258 163 -391l141 400q1 4 8 4q6 0 7 -3l143 -401q70 165 168 401q1 3 8 3h34
q6 0 4 -5z" />
    <glyph glyph-name="x" unicode="x" horiz-adv-x="433" 
d="M435 7q3 -5 2 -6t-7 -1h-35q-13 0 -20 10l-163 212q-129 -174 -159 -215q-5 -7 -9 -7h-43q-8 0 -3 8l188 252q-145 189 -183 241q-4 4 1 4h51q5 0 6 -2l151 -205q112 143 159 203q3 4 9 4h43q4 0 5.5 -1t-0.5 -3l-187 -240q126 -165 194 -254z" />
    <glyph glyph-name="y" unicode="y" horiz-adv-x="438" 
d="M435 495q-100 -265 -253 -654q-3 -7 -8 -7h-38q-10 0 -6 10q18 43 39 94t33 81t14 34q-62 125 -214 443q-3 6 -1.5 7.5t8.5 1.5h42q5 0 9 -8q165 -354 182 -385q22 68 139 385q2 8 11 8h39q7 0 4 -10z" />
    <glyph glyph-name="z" unicode="z" horiz-adv-x="429" 
d="M423 495l-342 -450h318q12 0 12 -6v-31q0 -8 -12 -8h-389q-6 0 -7 9t3 13l328 437h-304q-4 0 -4 7v33q0 4 1.5 5t9.5 1h384q2 0 3 -4t-1 -6z" />
    <glyph glyph-name="braceleft" unicode="{" horiz-adv-x="235" 
d="M245 -133q0 -7 -2.5 -9t-11.5 -2h-46q-40 0 -68 27.5t-28 89.5v193q0 30 -10.5 44t-38.5 19q-19 4 -19 11v52q0 11 16 13q30 4 41 21t11 58v147q0 76 29 111.5t67 35.5h46q10 0 12 -1.5t2 -9.5v-22q0 -8 -2 -10t-12 -2h-15q-53 0 -64 -26.5t-11 -115.5v-9v-107
q0 -27 -3 -44t-19.5 -36t-47.5 -28q45 -14 57.5 -39.5t12.5 -72.5v-98v-15q0 -37 0.5 -53t4 -37.5t11.5 -29t22.5 -13.5t36.5 -6h15q10 0 12 -2t2 -10v-24z" />
    <glyph glyph-name="bar" unicode="|" horiz-adv-x="276" 
d="M163 -180q0 -8 -1.5 -10t-7.5 -2h-22q-8 0 -8 13v891q0 9 1.5 11t8.5 2h16q8 0 10.5 -2.5t2.5 -11.5v-891z" />
    <glyph glyph-name="braceright" unicode="}" horiz-adv-x="235" 
d="M214 240q0 -8 -19 -11q-28 -5 -38.5 -19t-10.5 -44v-158q0 -74 -29 -113t-67 -39h-46q-9 0 -11.5 2t-2.5 9v24q0 8 2.5 10t11.5 2h15q20 0 33.5 3t22 13.5t13 18.5t6.5 31.5t2.5 37.5t0.5 50v98q0 33 2.5 49.5t18 35t46.5 27.5q-24 7 -38.5 18t-20 28t-7 29t-1.5 33v107
q0 95 -12 123t-66 28h-15q-9 0 -11.5 2t-2.5 10v22q0 8 2 9.5t12 1.5h46q38 0 67 -35.5t29 -111.5v-147q0 -41 11 -58t41 -21q11 -1 13.5 -3.5t2.5 -9.5v-52z" />
    <glyph glyph-name="asciitilde" unicode="~" horiz-adv-x="489" 
d="M419 614q-2 -8 -14.5 -27.5t-41 -41t-60.5 -21.5q-13 0 -27 5t-22 10.5t-19 13.5t-12 9t-10.5 7.5t-15.5 9.5t-17 6.5t-22 3.5q-27 0 -59 -27q-25 -21 -27 -22q-4 -2 -5.5 -0.5t-1.5 7.5q0 22 35 57t81 35q29 0 74 -35l15 -10q15 -10 26 -14.5t23 -4.5q33 0 63 26
q27 23 29 24q8 2 9.5 -0.5t-1.5 -10.5z" />
    <glyph glyph-name="nbspace" unicode="&#xa0;" horiz-adv-x="110" 
 />
    <glyph glyph-name="exclamdown" unicode="&#xa1;" horiz-adv-x="199" 
d="M63 337q0 36 4 108.5t10 94.5q1 6 3 7.5t7 1.5h7q9 0 11 -9q6 -22 10 -101t4 -101v-342q0 -10 -6 -10h-45q-5 0 -5 12v339zM58 662q0 16 10 16h46q6 0 8 -2t2 -13v-39q0 -9 -1.5 -11.5t-8.5 -2.5h-46q-7 0 -8.5 2t-1.5 12v38z" />
    <glyph glyph-name="cent" unicode="&#xa2;" horiz-adv-x="503" 
d="M459 308q-60 -113 -195 -113q-44 0 -84 14l-32 -53l-44 26l30 49q-46 30 -71.5 80t-25.5 112q0 100 62.5 164.5t164.5 64.5q42 0 77 -12l31 54l46 -24l-31 -52q44 -28 72 -79q1 -5 -1 -6l-32 -18q-3 -1 -7 6q-24 42 -64.5 66.5t-91.5 24.5q-78 0 -130 -54.5t-52 -134.5
q0 -79 52 -133.5t130 -54.5q53 0 96 25.5t66 69.5q1 3 6 3l28 -17q3 -3 0 -8z" />
    <glyph glyph-name="sterling" unicode="&#xa3;" horiz-adv-x="567" 
d="M524 563q4 -7 -3 -15q-11 -13 -27 -19q-7 -3 -12 5q-67 114 -183 114q-72 0 -119.5 -32t-47.5 -102q0 -22 8.5 -45.5t16.5 -38t27 -43.5q142 -1 158 0q2 0 3.5 -12.5t0 -24.5t-4.5 -12h-129q65 -122 42 -289h240q7 0 0 -27q-7 -22 -12 -22h-436q-12 0 -14 1.5t-2 10.5v23
q0 14 13 14h156q22 174 -43 289h-125q-8 0 -8 8v35q0 6 6 6h97q-45 70 -45 127q0 84 60 134.5t158 50.5q151 0 225 -136z" />
    <glyph glyph-name="currency" unicode="&#xa4;" 
d="M793 300q0 -154 -109.5 -263.5t-263.5 -109.5t-263.5 109.5t-109.5 263.5t109.5 263.5t263.5 109.5t263.5 -109.5t109.5 -263.5zM693 491l-48 -29l-9 78l-65 -109l-127 53l23 54l40 40l-103 33l-106 -73l82 -13l2 -49l-107 -51l-100 97l9 -104l-48 33l73 -189l193 38
l-127 -224l21 -51l48 24l67 220l-26 -218l46 -36l36 41l-25 215l63 -209l57 -9l16 43l-129 206l193 -22zM478 573l-32 -35l-35 -68l-13 48l12 17l-68 11l26 13l17 -5l-1 19l28 19zM658 436l-30 -128l-35 38l-38 -26l-28 30l-31 -20l-45 40l-35 -47l-52 44l-22 -53l-37 28
l-12 -35l-38 29l-34 -39l-38 91l33 -14l11 58l38 -48l128 53l21 -52l16 62l148 -56l47 59l8 -40zM559 94l-32 -18l-30 100zM448 53l-40 1l18 142zM353 160l-28 -107l-29 17z" />
    <glyph glyph-name="yen" unicode="&#xa5;" horiz-adv-x="569" 
d="M566 666q-12 -18 -49.5 -79t-75.5 -122.5t-66 -105.5h133q10 0 12 -1.5t2 -10.5v-23q0 -8 -2.5 -10t-11.5 -2h-162l-35 -56h197q10 0 12 -2t2 -10v-23q0 -7 -2.5 -9.5t-11.5 -2.5h-197v-196q0 -9 -1.5 -11t-9.5 -2h-35q-8 0 -8 14v195h-195q-8 0 -10 2t-2 10v23q0 8 2 10
t10 2h195q-14 22 -35 56h-160q-8 0 -10 2t-2 10v23q0 12 12 12h131l-192 309q-3 4 -0.5 7t11.5 3h36q8 0 14 -9l222 -358q180 290 223 357q7 10 15 10h37q14 0 7 -12z" />
    <glyph glyph-name="brokenbar" unicode="&#xa6;" 
d="M793 300q0 -154 -109.5 -263.5t-263.5 -109.5t-263.5 109.5t-109.5 263.5t109.5 263.5t263.5 109.5t263.5 -109.5t109.5 -263.5zM693 491l-48 -29l-9 78l-65 -109l-127 53l23 54l40 40l-103 33l-106 -73l82 -13l2 -49l-107 -51l-100 97l9 -104l-48 33l73 -189l193 38
l-127 -224l21 -51l48 24l67 220l-26 -218l46 -36l36 41l-25 215l63 -209l57 -9l16 43l-129 206l193 -22zM478 573l-32 -35l-35 -68l-13 48l12 17l-68 11l26 13l17 -5l-1 19l28 19zM658 436l-30 -128l-35 38l-38 -26l-28 30l-31 -20l-45 40l-35 -47l-52 44l-22 -53l-37 28
l-12 -35l-38 29l-34 -39l-38 91l33 -14l11 58l38 -48l128 53l21 -52l16 62l148 -56l47 59l8 -40zM559 94l-32 -18l-30 100zM448 53l-40 1l18 142zM353 160l-28 -107l-29 17z" />
    <glyph glyph-name="section" unicode="&#xa7;" horiz-adv-x="470" 
d="M433 301q0 -99 -72 -137q71 -36 71 -108q0 -76 -54 -119.5t-147 -43.5q-70 0 -114 23t-75 76q-7 11 5 17l25 14q9 5 16 -7q42 -72 144 -72q72 0 110.5 26t38.5 73q0 45 -31.5 67.5t-100.5 31.5q-3 0 -11.5 1t-11.5 2q-75 10 -121 45t-46 94q0 97 76 134q-76 37 -76 111
q0 69 51.5 108.5t135.5 39.5q139 0 186 -101q5 -10 -7 -16l-25 -12q-9 -5 -15 8q-39 70 -141 70q-65 0 -98.5 -24.5t-33.5 -65.5q0 -47 38 -68.5t112 -30.5q16 -2 21 -3q68 -9 109 -43t41 -90zM284 188q44 8 70.5 37.5t28.5 62t-28 62t-87 37.5l-73 10q-35 -12 -57.5 -41
t-26 -59.5t21 -59t74.5 -38.5q29 -6 48.5 -9t24.5 -2h4z" />
    <glyph glyph-name="dieresis" unicode="&#xa8;" horiz-adv-x="400" 
d="M345 606q0 -10 -9 -10h-64q-7 0 -7 9v55q0 8 8 8h62q10 0 10 -11v-51zM140 606q0 -10 -9 -10h-63q-8 0 -8 9v55q0 8 9 8h60q11 0 11 -11v-51z" />
    <glyph glyph-name="copyright" unicode="&#xa9;" horiz-adv-x="839" 
d="M811 308q0 -162 -115 -277t-277 -115t-277 115t-115 277t115 277t277 115t277 -115t115 -277zM771 308q0 146 -103.5 249t-248.5 103t-248.5 -103t-103.5 -249t103.5 -249t248.5 -103t248.5 103t103.5 249zM618 429q3 -4 -4 -8l-25 -13q-7 -4 -9 1q-24 40 -67.5 64.5
t-95.5 24.5q-80 0 -132 -54t-52 -136q0 -78 53 -134.5t131 -56.5q53 0 97 28t66 70q3 6 9 2l24 -14q7 -4 3 -10q-28 -51 -80.5 -81t-117.5 -30q-100 0 -163 63t-63 163t62.5 163t163.5 63q138 0 200 -105z" />
    <glyph glyph-name="ordfeminine" unicode="&#xaa;" horiz-adv-x="560" 
d="M460 305q0 -8 -8 -8h-26q-6 0 -6 8v61q-19 -33 -61 -55t-93 -22q-85 0 -140 55t-55 139q0 90 52 145t139 55q106 0 158 -77v63q0 7 5 7h28q7 0 7 -8v-363zM469 231q0 -8 -2.5 -9.5t-15.5 -1.5h-341q-11 0 -14 2t-3 9v16q0 7 3 9t14 2h341q12 0 15 -1.5t3 -8.5v-17z
M422 486q0 73 -45.5 118t-110.5 45q-69 0 -111.5 -43t-42.5 -120q0 -68 45 -114.5t109 -46.5q73 0 114.5 44.5t41.5 116.5z" />
    <glyph glyph-name="guillemotleft" unicode="&#xab;" horiz-adv-x="534" 
d="M476 15q0 -7 -5 -7q-4 0 -8 4q-153 146 -230 229q-4 4 -4 10q0 7 4 11q96 102 230 232q3 3 9 2q4 -1 4 -11v-32q0 -12 -8 -20l-183 -182q144 -140 183 -179q8 -8 8 -19v-38zM286 15q0 -7 -5 -7q-4 0 -8 4q-153 146 -230 229q-4 4 -4 10q0 7 4 11q96 102 230 232q5 5 9 2
t4 -11v-32q0 -12 -8 -20l-183 -182q144 -140 183 -179q8 -8 8 -19v-38z" />
    <glyph glyph-name="logicalnot" unicode="&#xac;" 
d="M793 300q0 -154 -109.5 -263.5t-263.5 -109.5t-263.5 109.5t-109.5 263.5t109.5 263.5t263.5 109.5t263.5 -109.5t109.5 -263.5zM693 491l-48 -29l-9 78l-65 -109l-127 53l23 54l40 40l-103 33l-106 -73l82 -13l2 -49l-107 -51l-100 97l9 -104l-48 33l73 -189l193 38
l-127 -224l21 -51l48 24l67 220l-26 -218l46 -36l36 41l-25 215l63 -209l57 -9l16 43l-129 206l193 -22zM478 573l-32 -35l-35 -68l-13 48l12 17l-68 11l26 13l17 -5l-1 19l28 19zM658 436l-30 -128l-35 38l-38 -26l-28 30l-31 -20l-45 40l-35 -47l-52 44l-22 -53l-37 28
l-12 -35l-38 29l-34 -39l-38 91l33 -14l11 58l38 -48l128 53l21 -52l16 62l148 -56l47 59l8 -40zM559 94l-32 -18l-30 100zM448 53l-40 1l18 142zM353 160l-28 -107l-29 17z" />
    <glyph glyph-name="registered" unicode="&#xae;" horiz-adv-x="839" 
d="M811 308q0 -162 -115 -277t-277 -115t-277 115t-115 277t115 277t277 115t277 -115t115 -277zM771 308q0 146 -103.5 249t-248.5 103t-248.5 -103t-103.5 -249t103.5 -249t248.5 -103t248.5 103t103.5 249zM595 115q0 -11 -10 -11h-20h-6.5t-4.5 1t-2.5 2t-2.5 3.5
t-3 4.5l-103 141h-125v-140q0 -8 -2 -10t-9 -2h-19h-7.5t-1.5 2t-1 10v383q0 13 9 12h1h143q65 0 101.5 -37.5t36.5 -90.5q0 -42 -23 -73t-59 -44q7 -10 24 -33.5t42 -57t37 -50.5q5 -7 5 -10zM528 384q0 87 -99 87h-111v-176h115q48 0 71.5 24t23.5 65z" />
    <glyph glyph-name="macron" unicode="&#xaf;" horiz-adv-x="400" 
d="M353 611q0 -12 -13 -12h-273q-9 0 -11.5 2t-2.5 10v25q0 12 14 12h273q13 0 13 -12v-25z" />
    <glyph glyph-name="degree" unicode="&#xb0;" horiz-adv-x="385" 
d="M359 535q0 -68 -48.5 -116t-116.5 -48t-116.5 48t-48.5 116t48.5 116.5t116.5 48.5t116.5 -48.5t48.5 -116.5zM326 535q0 55 -38.5 93.5t-93.5 38.5t-93.5 -38.5t-38.5 -93.5t38.5 -93t93.5 -38t93.5 38t38.5 93z" />
    <glyph glyph-name="plusminus" unicode="&#xb1;" horiz-adv-x="678" 
d="M607 10q0 -10 -8 -10h-35q-8 0 -8 13v668q0 7 1.5 9t8.5 2h32q4 0 5.5 -0.5t2.5 -2.5t1 -6v-673zM506 678q3 -3 -2 -11q-9 -15 -20 -29q-4 -5 -8 -1q-22 22 -55 22q-67 0 -67 -85v-63q0 -6 8 -6h98q5 0 5 -3v-40q0 -6 -7 -6h-104v-449q0 -7 -9 -7h-37q-5 0 -5 8v448h-54
q-5 0 -5 8v38q0 3 5 3h54v72q0 60 34 96t87 36q51 0 82 -31zM271 678q3 -3 -2 -11q-9 -15 -20 -29q-4 -5 -8 -1q-22 22 -55 22q-67 0 -67 -85v-63q0 -6 8 -6h98q5 0 5 -3v-40q0 -6 -7 -6h-104v-449q0 -7 -9 -7h-37q-5 0 -5 8v448h-54q-5 0 -5 8v38q0 3 5 3h54v72q0 60 34 96
t87 36q51 0 82 -31z" />
    <glyph glyph-name="twosuperior" unicode="&#xb2;" 
d="M793 300q0 -154 -109.5 -263.5t-263.5 -109.5t-263.5 109.5t-109.5 263.5t109.5 263.5t263.5 109.5t263.5 -109.5t109.5 -263.5zM693 491l-48 -29l-9 78l-65 -109l-127 53l23 54l40 40l-103 33l-106 -73l82 -13l2 -49l-107 -51l-100 97l9 -104l-48 33l73 -189l193 38
l-127 -224l21 -51l48 24l67 220l-26 -218l46 -36l36 41l-25 215l63 -209l57 -9l16 43l-129 206l193 -22zM478 573l-32 -35l-35 -68l-13 48l12 17l-68 11l26 13l17 -5l-1 19l28 19zM658 436l-30 -128l-35 38l-38 -26l-28 30l-31 -20l-45 40l-35 -47l-52 44l-22 -53l-37 28
l-12 -35l-38 29l-34 -39l-38 91l33 -14l11 58l38 -48l128 53l21 -52l16 62l148 -56l47 59l8 -40zM559 94l-32 -18l-30 100zM448 53l-40 1l18 142zM353 160l-28 -107l-29 17z" />
    <glyph glyph-name="threesuperior" unicode="&#xb3;" 
d="M793 300q0 -154 -109.5 -263.5t-263.5 -109.5t-263.5 109.5t-109.5 263.5t109.5 263.5t263.5 109.5t263.5 -109.5t109.5 -263.5zM693 491l-48 -29l-9 78l-65 -109l-127 53l23 54l40 40l-103 33l-106 -73l82 -13l2 -49l-107 -51l-100 97l9 -104l-48 33l73 -189l193 38
l-127 -224l21 -51l48 24l67 220l-26 -218l46 -36l36 41l-25 215l63 -209l57 -9l16 43l-129 206l193 -22zM478 573l-32 -35l-35 -68l-13 48l12 17l-68 11l26 13l17 -5l-1 19l28 19zM658 436l-30 -128l-35 38l-38 -26l-28 30l-31 -20l-45 40l-35 -47l-52 44l-22 -53l-37 28
l-12 -35l-38 29l-34 -39l-38 91l33 -14l11 58l38 -48l128 53l21 -52l16 62l148 -56l47 59l8 -40zM559 94l-32 -18l-30 100zM448 53l-40 1l18 142zM353 160l-28 -107l-29 17z" />
    <glyph glyph-name="acute" unicode="&#xb4;" horiz-adv-x="400" 
d="M275 677q-1 -2 -7 -8q-50 -52 -132 -118q-10 -7 -20 -2q-6 3 -2 9q60 80 117 155q5 7 13 0q24 -20 31 -27q4 -4 0 -9z" />
    <glyph glyph-name="mu" unicode="&#xb5;" 
d="M793 300q0 -154 -109.5 -263.5t-263.5 -109.5t-263.5 109.5t-109.5 263.5t109.5 263.5t263.5 109.5t263.5 -109.5t109.5 -263.5zM693 491l-48 -29l-9 78l-65 -109l-127 53l23 54l40 40l-103 33l-106 -73l82 -13l2 -49l-107 -51l-100 97l9 -104l-48 33l73 -189l193 38
l-127 -224l21 -51l48 24l67 220l-26 -218l46 -36l36 41l-25 215l63 -209l57 -9l16 43l-129 206l193 -22zM478 573l-32 -35l-35 -68l-13 48l12 17l-68 11l26 13l17 -5l-1 19l28 19zM658 436l-30 -128l-35 38l-38 -26l-28 30l-31 -20l-45 40l-35 -47l-52 44l-22 -53l-37 28
l-12 -35l-38 29l-34 -39l-38 91l33 -14l11 58l38 -48l128 53l21 -52l16 62l148 -56l47 59l8 -40zM559 94l-32 -18l-30 100zM448 53l-40 1l18 142zM353 160l-28 -107l-29 17z" />
    <glyph glyph-name="paragraph" unicode="&#xb6;" horiz-adv-x="641" 
d="M562 -62q0 -7 -0.5 -8t-4.5 -1h-2h-49l-5 697h-48l-25 -697h-49q-7 0 -6 9q4 118 9 264h-78q-116 0 -177 62.5t-61 172.5q0 112 62 176.5t177 64.5h245q6 -3 7 -9v-323q0 -55 1.5 -154.5t2.5 -176t1 -77.5zM397 626h-89q-89 0 -134.5 -49.5t-45.5 -140.5q0 -84 44.5 -133
t133.5 -49h78q6 211 13 372z" />
    <glyph glyph-name="periodcentered" unicode="&#xb7;" horiz-adv-x="170" 
d="M118 319q0 -8 -2 -10.5t-11 -2.5h-50q-7 0 -9.5 2t-2.5 10v53q0 10 11 10h55q7 0 8 -1.5t1 -9.5v-51z" />
    <glyph glyph-name="cedilla" unicode="&#xb8;" horiz-adv-x="400" 
d="M335 -105q0 -51 -37.5 -85t-106.5 -34q-98 0 -124 79q-1 7 4 10l33 14q3 1 5 -2q8 -24 31 -40.5t51 -16.5q42 0 70.5 22.5t28.5 60.5q0 47 -44.5 72t-77.5 25h49q56 0 87 -34t31 -71z" />
    <glyph glyph-name="onesuperior" unicode="&#xb9;" 
d="M793 300q0 -154 -109.5 -263.5t-263.5 -109.5t-263.5 109.5t-109.5 263.5t109.5 263.5t263.5 109.5t263.5 -109.5t109.5 -263.5zM693 491l-48 -29l-9 78l-65 -109l-127 53l23 54l40 40l-103 33l-106 -73l82 -13l2 -49l-107 -51l-100 97l9 -104l-48 33l73 -189l193 38
l-127 -224l21 -51l48 24l67 220l-26 -218l46 -36l36 41l-25 215l63 -209l57 -9l16 43l-129 206l193 -22zM478 573l-32 -35l-35 -68l-13 48l12 17l-68 11l26 13l17 -5l-1 19l28 19zM658 436l-30 -128l-35 38l-38 -26l-28 30l-31 -20l-45 40l-35 -47l-52 44l-22 -53l-37 28
l-12 -35l-38 29l-34 -39l-38 91l33 -14l11 58l38 -48l128 53l21 -52l16 62l148 -56l47 59l8 -40zM559 94l-32 -18l-30 100zM448 53l-40 1l18 142zM353 160l-28 -107l-29 17z" />
    <glyph glyph-name="ordmasculine" unicode="&#xba;" horiz-adv-x="560" 
d="M496 479q0 -89 -60 -145t-155 -56q-93 0 -152.5 56t-59.5 145q0 88 58.5 145t153.5 57t155 -56t60 -146zM469 223q0 -7 -3 -9t-15 -2h-341q-11 0 -14 2.5t-3 9.5v14q0 12 17 12h341q12 0 15 -1.5t3 -8.5v-17zM456 479q0 70 -50.5 118t-124.5 48q-73 0 -122 -48t-49 -118
q0 -69 49.5 -117t121.5 -48q74 0 124.5 48t50.5 117z" />
    <glyph glyph-name="guillemotright" unicode="&#xbb;" horiz-adv-x="534" 
d="M493 251q0 -6 -4 -10q-77 -83 -230 -229q-5 -5 -8 -5q-5 0 -5 8v38q0 11 8 19l183 179q-118 119 -183 182q-8 8 -8 20v32q0 8 4 11t9 -2q134 -130 230 -232q4 -4 4 -11zM303 251q0 -6 -4 -10q-77 -83 -230 -229q-5 -5 -8 -5q-5 0 -5 8v38q0 11 8 19l183 179
q-118 119 -183 182q-8 8 -8 20v32q0 8 4 11t9 -2q134 -130 230 -232q4 -4 4 -11z" />
    <glyph glyph-name="onequarter" unicode="&#xbc;" 
d="M793 300q0 -154 -109.5 -263.5t-263.5 -109.5t-263.5 109.5t-109.5 263.5t109.5 263.5t263.5 109.5t263.5 -109.5t109.5 -263.5zM693 491l-48 -29l-9 78l-65 -109l-127 53l23 54l40 40l-103 33l-106 -73l82 -13l2 -49l-107 -51l-100 97l9 -104l-48 33l73 -189l193 38
l-127 -224l21 -51l48 24l67 220l-26 -218l46 -36l36 41l-25 215l63 -209l57 -9l16 43l-129 206l193 -22zM478 573l-32 -35l-35 -68l-13 48l12 17l-68 11l26 13l17 -5l-1 19l28 19zM658 436l-30 -128l-35 38l-38 -26l-28 30l-31 -20l-45 40l-35 -47l-52 44l-22 -53l-37 28
l-12 -35l-38 29l-34 -39l-38 91l33 -14l11 58l38 -48l128 53l21 -52l16 62l148 -56l47 59l8 -40zM559 94l-32 -18l-30 100zM448 53l-40 1l18 142zM353 160l-28 -107l-29 17z" />
    <glyph glyph-name="onehalf" unicode="&#xbd;" 
d="M793 300q0 -154 -109.5 -263.5t-263.5 -109.5t-263.5 109.5t-109.5 263.5t109.5 263.5t263.5 109.5t263.5 -109.5t109.5 -263.5zM693 491l-48 -29l-9 78l-65 -109l-127 53l23 54l40 40l-103 33l-106 -73l82 -13l2 -49l-107 -51l-100 97l9 -104l-48 33l73 -189l193 38
l-127 -224l21 -51l48 24l67 220l-26 -218l46 -36l36 41l-25 215l63 -209l57 -9l16 43l-129 206l193 -22zM478 573l-32 -35l-35 -68l-13 48l12 17l-68 11l26 13l17 -5l-1 19l28 19zM658 436l-30 -128l-35 38l-38 -26l-28 30l-31 -20l-45 40l-35 -47l-52 44l-22 -53l-37 28
l-12 -35l-38 29l-34 -39l-38 91l33 -14l11 58l38 -48l128 53l21 -52l16 62l148 -56l47 59l8 -40zM559 94l-32 -18l-30 100zM448 53l-40 1l18 142zM353 160l-28 -107l-29 17z" />
    <glyph glyph-name="threequarters" unicode="&#xbe;" 
d="M793 300q0 -154 -109.5 -263.5t-263.5 -109.5t-263.5 109.5t-109.5 263.5t109.5 263.5t263.5 109.5t263.5 -109.5t109.5 -263.5zM693 491l-48 -29l-9 78l-65 -109l-127 53l23 54l40 40l-103 33l-106 -73l82 -13l2 -49l-107 -51l-100 97l9 -104l-48 33l73 -189l193 38
l-127 -224l21 -51l48 24l67 220l-26 -218l46 -36l36 41l-25 215l63 -209l57 -9l16 43l-129 206l193 -22zM478 573l-32 -35l-35 -68l-13 48l12 17l-68 11l26 13l17 -5l-1 19l28 19zM658 436l-30 -128l-35 38l-38 -26l-28 30l-31 -20l-45 40l-35 -47l-52 44l-22 -53l-37 28
l-12 -35l-38 29l-34 -39l-38 91l33 -14l11 58l38 -48l128 53l21 -52l16 62l148 -56l47 59l8 -40zM559 94l-32 -18l-30 100zM448 53l-40 1l18 142zM353 160l-28 -107l-29 17z" />
    <glyph glyph-name="questiondown" unicode="&#xbf;" horiz-adv-x="430" 
d="M23 163q0 29 7 54.5t23 49t25 36t32 35t25 25.5q30 32 42.5 49t24 48.5t11.5 71.5q0 9 4 9h44q4 0 4 -7q0 -97 -79 -185q-6 -6 -35.5 -36.5t-40.5 -45t-24 -44t-13 -59.5q0 -57 40 -94.5t103 -37.5q58 0 100 39.5t59 109.5q1 8 10 5q8 -4 17 -7.5t13 -5.5q6 -3 4 -13
q-17 -80 -73.5 -129t-129.5 -49q-78 0 -135.5 47.5t-57.5 133.5zM206 662q0 16 10 16h46q6 0 8 -2t2 -13v-39q0 -9 -1.5 -11.5t-8.5 -2.5h-46q-7 0 -8.5 2t-1.5 12v38z" />
    <glyph glyph-name="Agrave" unicode="&#xc0;" horiz-adv-x="671" 
d="M674 12q6 -12 -6 -12h-43q-6 0 -11 8l-74 155h-409l-72 -151q-7 -12 -17 -12h-35q-9 0 -10.5 2.5t2.5 11.5q214 446 329 674q4 7 8 7t8 -7q231 -466 330 -676zM518 211q-97 206 -160 337q-20 43 -22 43t-22 -42l-161 -338h365zM355 738q4 -6 -2 -9q-4 -2 -20 -2t-20 4
q-15 15 -38 39t-45.5 48t-28.5 31q-8 8 -8 10q0 5 4 9q10 10 28 25q8 7 13 0q57 -75 117 -155z" />
    <glyph glyph-name="Aacute" unicode="&#xc1;" horiz-adv-x="671" 
d="M674 12q6 -12 -6 -12h-43q-6 0 -11 8l-74 155h-409l-72 -151q-7 -12 -17 -12h-35q-9 0 -10.5 2.5t2.5 11.5q214 446 329 674q4 7 8 7t8 -7q231 -466 330 -676zM518 211q-97 206 -160 337q-20 43 -22 43t-22 -42l-161 -338h365zM407 845q-1 -2 -7 -8q-50 -52 -132 -118
q-10 -7 -20 -2q-6 3 -2 9q60 80 117 155q5 7 13 0q24 -20 31 -27q4 -4 0 -9z" />
    <glyph glyph-name="Acircumflex" unicode="&#xc2;" horiz-adv-x="671" 
d="M674 12q6 -12 -6 -12h-43q-6 0 -11 8l-74 155h-409l-72 -151q-7 -12 -17 -12h-35q-9 0 -10.5 2.5t2.5 11.5q214 446 329 674q4 7 8 7t8 -7q231 -466 330 -676zM518 211q-97 206 -160 337q-20 43 -22 43t-22 -42l-161 -338h365zM497 711q-1 -4 -10 -4h-19q-2 0 -8 3
q-13 8 -44.5 34t-57.5 48l-25 23q-95 -92 -124 -106q-6 -2 -7 -2h-24q-6 0 -6 4q0 2 5 7q121 123 148 151q6 6 8 6q3 0 10 -7q128 -128 147 -148q7 -7 7 -9z" />
    <glyph glyph-name="Atilde" unicode="&#xc3;" horiz-adv-x="671" 
d="M674 12q6 -12 -6 -12h-43q-6 0 -11 8l-74 155h-409l-72 -151q-7 -12 -17 -12h-35q-9 0 -10.5 2.5t2.5 11.5q214 446 329 674q4 7 8 7t8 -7q231 -466 330 -676zM518 211q-97 206 -160 337q-20 43 -22 43t-22 -42l-161 -338h365zM526 821q-2 -8 -14.5 -27.5t-41 -41
t-60.5 -21.5q-13 0 -27 5t-22 10.5t-19 13.5t-12 9t-10.5 7.5t-15.5 9.5t-17 6.5t-22 3.5q-27 0 -59 -27q-25 -21 -27 -22q-6 -2 -6.5 -1.5t-0.5 8.5q0 22 35 57t81 35q29 0 74 -35l15 -10q15 -10 26 -14.5t23 -4.5q33 0 63 26q27 23 29 24q8 2 9.5 -0.5t-1.5 -10.5z" />
    <glyph glyph-name="Adieresis" unicode="&#xc4;" horiz-adv-x="671" 
d="M488 738q0 -10 -9 -10h-64q-7 0 -7 9v55q0 8 8 8h62q10 0 10 -11v-51zM263 738q0 -10 -9 -10h-63q-8 0 -8 9v55q0 8 9 8h60q11 0 11 -11v-51zM674 12q6 -12 -6 -12h-43q-6 0 -11 8l-74 155h-409l-72 -151q-7 -12 -17 -12h-35q-9 0 -10.5 2.5t2.5 11.5q214 446 329 674
q4 7 8 7t8 -7q231 -466 330 -676zM518 211q-97 206 -160 337q-20 43 -22 43t-22 -42l-161 -338h365z" />
    <glyph glyph-name="Aring" unicode="&#xc5;" horiz-adv-x="671" 
d="M674 12q3 -6 3 -8.5t-2 -3t-7 -0.5h-45q-5 0 -9 8l-72 151h-413l-70 -147q-7 -12 -17 -12h-35q-10 0 -11.5 2.5t3.5 11.5q198 408 293 602q-29 13 -47.5 40.5t-18.5 60.5q0 45 33 78t78 33t78 -33t33 -78q0 -33 -19 -61t-49 -41q93 -189 294 -603zM402 717
q0 28 -18.5 46.5t-46.5 18.5t-46.5 -18.5t-18.5 -46.5t18.5 -46.5t46.5 -18.5t46.5 18.5t18.5 46.5zM518 211q-95 208 -160 337q-3 7 -8.5 18.5t-9 18t-4.5 6.5t-4.5 -7t-9 -18.5t-8.5 -16.5l-161 -338h365z" />
    <glyph glyph-name="AE" unicode="&#xc6;" horiz-adv-x="802" 
d="M789 12q0 -9 -1.5 -10.5t-9.5 -1.5h-397q-6 0 -7.5 2.5t-1.5 11.5v145h-240q-51 -97 -77 -147q-4 -9 -7 -10.5t-11 -1.5h-35q-9 0 -10.5 2.5t3.5 11.5q35 65 362 658q3 6 16 6h402q6 0 7.5 -2t1.5 -9v-31q0 -6 -2 -8t-7 -2h-351v-255h344q9 0 9 -9v-33q0 -10 -9 -10h-345
v-267h355q8 0 9.5 -1.5t1.5 -11.5v-27zM372 211v399q-20 -48 -34 -71l-179 -328h213z" />
    <glyph glyph-name="Ccedilla" unicode="&#xc7;" horiz-adv-x="753" 
d="M696 167q-83 -156 -244 -180q27 -32 27 -72q0 -51 -36 -85t-105 -34q-98 0 -124 79q-1 7 4 10l33 14q3 1 5 -2q8 -24 31.5 -40.5t50.5 -16.5q40 0 68 22.5t28 60.5q0 35 -25 60h-14q-151 0 -253 103t-102 251t102.5 251.5t252.5 103.5q115 0 195 -55.5t106 -127.5
q5 -15 -2 -17l-32 -11q-8 -3 -12 9q-23 60 -91.5 107.5t-164.5 47.5q-125 0 -213 -91t-88 -217q0 -127 87.5 -217t213.5 -90q52 0 94.5 13.5t73 39t51 50t39.5 56.5q8 14 17 8l26 -15q7 -5 1 -15z" />
    <glyph glyph-name="Egrave" unicode="&#xc8;" horiz-adv-x="572" 
d="M525 12q0 -9 -1.5 -10.5t-9.5 -1.5h-437q-6 0 -7.5 2.5t-1.5 11.5v654v3q0 7 5 7h438q6 0 7.5 -2t1.5 -9v-25q0 -14 -9 -14h-387v-258h383q6 0 6 -14v-20q0 -16 -6 -16h-383v-270h390q8 0 9.5 -1.5t1.5 -11.5v-25zM371 722q4 -6 -2 -9q-4 -2 -20 -2t-20 4q-15 15 -38 39
t-45.5 48t-28.5 31q-8 8 -8 10q0 5 4 9q10 10 28 25q8 7 13 0q57 -75 117 -155z" />
    <glyph glyph-name="Eacute" unicode="&#xc9;" horiz-adv-x="572" 
d="M525 12q0 -9 -1.5 -10.5t-9.5 -1.5h-437q-6 0 -7.5 2.5t-1.5 11.5v654v3q0 7 5 7h438q6 0 7.5 -2t1.5 -9v-25q0 -14 -9 -14h-387v-258h383q6 0 6 -14v-20q0 -16 -6 -16h-383v-270h390q8 0 9.5 -1.5t1.5 -11.5v-25zM381 846q-1 -2 -7 -8q-50 -52 -132 -118q-10 -7 -20 -2
q-6 3 -2 9q60 80 117 155q5 6 13 0q24 -20 31 -27q4 -4 0 -9z" />
    <glyph glyph-name="Ecircumflex" unicode="&#xca;" horiz-adv-x="572" 
d="M525 12q0 -9 -1.5 -10.5t-9.5 -1.5h-437q-6 0 -7.5 2.5t-1.5 11.5v654v3q0 7 5 7h438q6 0 7.5 -2t1.5 -9v-25q0 -14 -9 -14h-387v-258h383q6 0 6 -14v-20q0 -16 -6 -16h-383v-270h390q8 0 9.5 -1.5t1.5 -11.5v-25zM459 718q-1 -4 -10 -4h-19q-2 0 -8 3q-13 8 -44.5 34
t-57.5 49l-25 22q-95 -92 -124 -106q-6 -2 -7 -2h-24q-6 0 -6 4q0 2 5 7q121 123 148 151q6 6 8 6q3 0 10 -7q128 -128 147 -148q7 -7 7 -9z" />
    <glyph glyph-name="Edieresis" unicode="&#xcb;" horiz-adv-x="572" 
d="M455 745q0 -10 -9 -10h-64q-7 0 -7 9v55q0 8 8 8h62q10 0 10 -11v-51zM230 745q0 -10 -9 -10h-63q-8 0 -8 9v55q0 8 9 8h60q11 0 11 -11v-51zM525 12q0 -9 -1.5 -10.5t-9.5 -1.5h-437q-6 0 -7.5 2.5t-1.5 11.5v654v3q0 7 5 7h438q6 0 7.5 -2t1.5 -9v-25q0 -14 -9 -14
h-387v-258h383q6 0 6 -14v-20q0 -16 -6 -16h-383v-270h390q8 0 9.5 -1.5t1.5 -11.5v-25z" />
    <glyph glyph-name="Igrave" unicode="&#xcc;" horiz-adv-x="238" 
d="M147 9q0 -6 -1.5 -7.5t-8.5 -1.5h-36q-10 0 -10 9v657q0 8 2 10t9 2h37q8 0 8 -12v-657zM187 724q4 -6 -2 -9q-4 -2 -20 -2t-20 4q-15 15 -38 39t-45.5 48t-28.5 31q-8 8 -8 10q0 5 4 9q10 10 28 25q8 7 13 0q57 -75 117 -155z" />
    <glyph glyph-name="Iacute" unicode="&#xcd;" horiz-adv-x="238" 
d="M147 9q0 -6 -1.5 -7.5t-8.5 -1.5h-36q-10 0 -10 9v657q0 8 2 10t9 2h37q8 0 8 -12v-657zM189 821q-1 -2 -7 -8q-50 -52 -132 -118q-10 -7 -20 -2q-6 3 -2 9q60 80 117 155q5 7 13 0q24 -20 31 -27q4 -4 0 -9z" />
    <glyph glyph-name="Icircumflex" unicode="&#xce;" horiz-adv-x="238" 
d="M147 9q0 -6 -1.5 -7.5t-8.5 -1.5h-36q-10 0 -10 9v657q0 8 2 10t9 2h37q8 0 8 -12v-657zM275 716q-1 -4 -10 -4h-19q-2 0 -8 3q-13 8 -44.5 34t-57.5 49l-25 22q-95 -92 -124 -106q-6 -2 -7 -2h-24q-6 0 -6 4q0 2 5 7q121 123 148 151q6 6 8 6q3 0 10 -7
q128 -128 147 -148q7 -7 7 -9z" />
    <glyph glyph-name="Idieresis" unicode="&#xcf;" horiz-adv-x="238" 
d="M254 745q0 -10 -9 -10h-64q-7 0 -7 9v55q0 8 8 8h62q10 0 10 -11v-51zM29 745q0 -10 -9 -10h-63q-8 0 -8 9v55q0 8 9 8h60q11 0 11 -11v-51zM147 9q0 -6 -1.5 -7.5t-8.5 -1.5h-36q-10 0 -10 9v657q0 8 2 10t9 2h37q8 0 8 -12v-657z" />
    <glyph glyph-name="Eth" unicode="&#xd0;" horiz-adv-x="710" 
d="M670 344q0 -144 -94 -244t-230 -100h-274q-4 0 -4 9v312h-28q-9 0 -11.5 2t-2.5 10v25q0 6 2.5 8t11.5 2h28v300q0 10 4 10h280q135 0 226.5 -87t91.5 -247zM616 344q0 136 -76.5 209t-198.5 73h-217v-258h189q9 0 10.5 -1.5t1.5 -10.5v-23q0 -8 -2 -10t-10 -2h-189v-269
h215q117 0 197 83t80 209z" />
    <glyph glyph-name="Ntilde" unicode="&#xd1;" horiz-adv-x="683" 
d="M615 -1q0 -9 -11 -9q-9 0 -15 8l-465 560v-549q0 -9 -7 -9h-41q-8 0 -8 10v668q0 8 9 8q8 0 15 -7q29 -32 146 -172.5t219 -264.5l102 -125v552q0 6 2 7.5t7 1.5h39q8 0 8 -12v-667zM536 806q-2 -8 -14.5 -27.5t-41 -41t-60.5 -21.5q-13 0 -27 5t-22 10.5t-19 13.5t-12 9
t-10.5 7.5t-15.5 9.5t-17 6.5t-22 3.5q-27 0 -59 -27q-25 -21 -27 -22q-6 -2 -6.5 -1.5t-0.5 8.5q0 22 35 57t81 35q29 0 74 -35l15 -10q15 -10 26 -14.5t23 -4.5q33 0 63 26q27 23 29 24q8 2 9.5 -0.5t-1.5 -10.5z" />
    <glyph glyph-name="Ograve" unicode="&#xd2;" horiz-adv-x="790" 
d="M750 337q0 -148 -102 -251t-253 -103t-253 103t-102 251t102.5 251.5t252.5 103.5t252.5 -103.5t102.5 -251.5zM692 337q0 126 -86 215.5t-211 89.5t-211 -89.5t-86 -215.5t86 -215t211 -89t211 89t86 215zM473 724q4 -6 -2 -9q-4 -2 -20 -2t-20 4q-15 15 -38 39
t-45.5 48t-28.5 31q-8 8 -8 10q0 5 4 9q10 10 28 25q8 7 13 0q57 -75 117 -155z" />
    <glyph glyph-name="Oacute" unicode="&#xd3;" horiz-adv-x="790" 
d="M750 337q0 -148 -102 -251t-253 -103t-253 103t-102 251t102.5 251.5t252.5 103.5t252.5 -103.5t102.5 -251.5zM692 337q0 126 -86 215.5t-211 89.5t-211 -89.5t-86 -215.5t86 -215t211 -89t211 89t86 215zM471 847q-1 -2 -7 -8q-50 -52 -132 -118q-10 -7 -20 -2
q-6 3 -2 9q60 80 117 155q5 7 13 0q24 -20 31 -27q4 -4 0 -9z" />
    <glyph glyph-name="Ocircumflex" unicode="&#xd4;" horiz-adv-x="790" 
d="M750 337q0 -148 -102 -251t-253 -103t-253 103t-102 251t102.5 251.5t252.5 103.5t252.5 -103.5t102.5 -251.5zM692 337q0 126 -86 215.5t-211 89.5t-211 -89.5t-86 -215.5t86 -215t211 -89t211 89t86 215zM559 712q-1 -4 -10 -4h-19q-2 0 -8 3q-13 8 -44.5 34t-57.5 49
l-25 22q-95 -92 -124 -106q-6 -2 -7 -2h-24q-6 0 -6 4q0 2 5 7q121 123 148 151q6 6 8 6q3 0 10 -7q128 -128 147 -148q7 -7 7 -9z" />
    <glyph glyph-name="Otilde" unicode="&#xd5;" horiz-adv-x="790" 
d="M750 337q0 -148 -102 -251t-253 -103t-253 103t-102 251t102.5 251.5t252.5 103.5t252.5 -103.5t102.5 -251.5zM692 337q0 126 -86 215.5t-211 89.5t-211 -89.5t-86 -215.5t86 -215t211 -89t211 89t86 215zM579 822q-2 -8 -14.5 -27.5t-41 -41t-60.5 -21.5q-13 0 -27 5
t-22 10.5t-19 13.5t-12 9t-10.5 7.5t-15.5 9.5t-17 6.5t-22 3.5q-27 0 -59 -27q-25 -21 -27 -22q-6 -2 -6.5 -1.5t-0.5 8.5q0 22 35 57t81 35q29 0 74 -35l15 -10q15 -10 26 -14.5t23 -4.5q33 0 63 26q27 23 29 24q8 2 9.5 -0.5t-1.5 -10.5z" />
    <glyph glyph-name="Odieresis" unicode="&#xd6;" horiz-adv-x="790" 
d="M547 738q0 -10 -9 -10h-64q-7 0 -7 9v55q0 8 8 8h62q10 0 10 -11v-51zM322 738q0 -10 -9 -10h-63q-8 0 -8 9v55q0 8 9 8h60q11 0 11 -11v-51zM750 337q0 -148 -102 -251t-253 -103t-253 103t-102 251t102.5 251.5t252.5 103.5t252.5 -103.5t102.5 -251.5zM692 337
q0 126 -86 215.5t-211 89.5t-211 -89.5t-86 -215.5t86 -215t211 -89t211 89t86 215z" />
    <glyph glyph-name="multiply" unicode="&#xd7;" 
d="M793 300q0 -154 -109.5 -263.5t-263.5 -109.5t-263.5 109.5t-109.5 263.5t109.5 263.5t263.5 109.5t263.5 -109.5t109.5 -263.5zM693 491l-48 -29l-9 78l-65 -109l-127 53l23 54l40 40l-103 33l-106 -73l82 -13l2 -49l-107 -51l-100 97l9 -104l-48 33l73 -189l193 38
l-127 -224l21 -51l48 24l67 220l-26 -218l46 -36l36 41l-25 215l63 -209l57 -9l16 43l-129 206l193 -22zM478 573l-32 -35l-35 -68l-13 48l12 17l-68 11l26 13l17 -5l-1 19l28 19zM658 436l-30 -128l-35 38l-38 -26l-28 30l-31 -20l-45 40l-35 -47l-52 44l-22 -53l-37 28
l-12 -35l-38 29l-34 -39l-38 91l33 -14l11 58l38 -48l128 53l21 -52l16 62l148 -56l47 59l8 -40zM559 94l-32 -18l-30 100zM448 53l-40 1l18 142zM353 160l-28 -107l-29 17z" />
    <glyph glyph-name="Oslash" unicode="&#xd8;" horiz-adv-x="790" 
d="M750 337q0 -148 -102 -251t-253 -103q-140 0 -242 92q-17 -17 -37.5 -36.5t-33 -31.5t-14.5 -14q-4 -5 -11 2l-6.5 6.5l-9 9l-8.5 8.5q-5 7 1 13q25 25 84 80q-78 97 -78 225q0 148 102.5 251.5t252.5 103.5q142 0 241 -93q61 60 79 75q6 4 13 -3q8 -8 21 -24
q5 -7 -1 -12q-2 -2 -12 -11t-28.5 -26.5t-36.5 -34.5q79 -98 79 -226zM596 561q-85 80 -201 80q-124 0 -211 -89.5t-87 -214.5q0 -102 63 -186q72 67 242 227.5t194 182.5zM694 337q0 104 -64 187q-68 -65 -227 -214t-209 -196q85 -80 201 -80q123 0 211 89.5t88 213.5z" />
    <glyph glyph-name="Ugrave" unicode="&#xd9;" horiz-adv-x="644" 
d="M585 258q0 -130 -70.5 -202.5t-192.5 -72.5t-192.5 72.5t-70.5 203.5v412q0 5 1 6t6 1h42q5 0 6 -1t1 -7v-411q0 -226 207 -226t207 226v412q0 7 4 7h45q5 0 6 -1t1 -6v-413zM407 726q4 -6 -2 -9q-4 -2 -20 -2t-20 4q-15 15 -38 39t-45.5 48t-28.5 31q-8 8 -8 10q0 5 4 9
q10 10 28 25q8 7 13 0q57 -75 117 -155z" />
    <glyph glyph-name="Uacute" unicode="&#xda;" horiz-adv-x="644" 
d="M585 258q0 -130 -70.5 -202.5t-192.5 -72.5t-192.5 72.5t-70.5 203.5v412q0 5 1 6t6 1h42q5 0 6 -1t1 -7v-411q0 -226 207 -226t207 226v412q0 7 4 7h45q5 0 6 -1t1 -6v-413zM407 847q-1 -2 -7 -8q-50 -52 -132 -118q-10 -7 -20 -2q-6 3 -2 9q60 80 117 155q5 7 13 0
q24 -20 31 -27q4 -4 0 -9z" />
    <glyph glyph-name="Ucircumflex" unicode="&#xdb;" horiz-adv-x="644" 
d="M585 258q0 -130 -70.5 -202.5t-192.5 -72.5t-192.5 72.5t-70.5 203.5v412q0 5 1 6t6 1h42q5 0 6 -1t1 -7v-411q0 -226 207 -226t207 226v412q0 7 4 7h45q5 0 6 -1t1 -6v-413zM485 716q-1 -4 -10 -4h-19q-2 0 -8 3q-13 8 -44.5 34t-57.5 49l-25 22q-95 -92 -124 -106
q-6 -2 -7 -2h-24q-6 0 -6 4q0 2 5 7q121 123 148 151q6 6 8 6q3 0 10 -7q128 -128 147 -148q7 -7 7 -9z" />
    <glyph glyph-name="Udieresis" unicode="&#xdc;" horiz-adv-x="644" 
d="M474 738q0 -10 -9 -10h-64q-7 0 -7 9v55q0 8 8 8h62q10 0 10 -11v-51zM249 738q0 -10 -9 -10h-63q-8 0 -8 9v55q0 8 9 8h60q11 0 11 -11v-51zM585 258q0 -130 -70.5 -202.5t-192.5 -72.5t-192.5 72.5t-70.5 203.5v412q0 5 1 6t6 1h42q5 0 6 -1t1 -7v-411q0 -226 207 -226
t207 226v412q0 7 4 7h45q5 0 6 -1t1 -6v-413z" />
    <glyph glyph-name="Yacute" unicode="&#xdd;" horiz-adv-x="569" 
d="M566 666l-254 -410v-243q0 -9 -1.5 -11t-9.5 -2h-37q-8 0 -8 11v245q-201 325 -255 412q-3 5 -1 7.5t12 2.5h36q8 0 14 -9l222 -358q179 288 222 355q8 12 13 12h40q14 0 7 -12zM377 848q-1 -2 -7 -8q-50 -52 -132 -118q-10 -7 -20 -2q-6 3 -2 9q60 80 117 155q5 6 13 0
q24 -20 31 -27q4 -4 0 -9z" />
    <glyph glyph-name="Thorn" unicode="&#xde;" horiz-adv-x="591" 
d="M559 352q0 -93 -66 -149t-162 -56h-207v-138q0 -9 -7 -9h-42q-7 7 -7 9v657q0 12 11 12h35q11 0 11 -13v-102h210q95 0 159.5 -62t64.5 -149zM504 351q0 72 -50.5 116t-121.5 44h-208v-312h210q68 0 119 44.5t51 107.5z" />
    <glyph glyph-name="germandbls" unicode="&#xdf;" horiz-adv-x="536" 
d="M494 182q0 -80 -49.5 -133t-130.5 -53q-39 0 -51 5q-6 2 -6 13v25v3q0 11 3 10q21 -6 47 -6q58 0 96 38.5t38 102.5q0 35 -17.5 61.5t-45 41t-56.5 22t-56 7.5q-4 0 -4 10v68l2 12q144 20 144 121q0 130 -145 130q-69 0 -110.5 -41.5t-41.5 -116.5v-495q0 -7 -4 -7h-43
q-4 0 -4 9v492q0 94 55 152t144 58q94 0 148 -45.5t54 -130.5q0 -73 -56.5 -120.5t-139.5 -49.5q107 -1 168 -52t61 -131z" />
    <glyph glyph-name="agrave" unicode="&#xe0;" horiz-adv-x="576" 
d="M520 11q0 -11 -9 -11h-33q-8 0 -8 10v82q-22 -45 -74.5 -73.5t-117.5 -28.5q-107 0 -175.5 72.5t-68.5 185.5q0 121 65 194t174 73q64 0 115 -27.5t82 -75.5v84q0 9 7 9h35q8 0 8 -7v-487zM473 252q0 97 -57 157t-138 60q-86 0 -139 -57t-53 -160q0 -90 56.5 -152.5
t135.5 -62.5q92 0 143.5 59.5t51.5 155.5zM344 558q4 -6 -2 -9q-4 -2 -20 -2t-20 4q-15 15 -38 39t-45.5 48t-28.5 31q-8 8 -8 10q0 5 4 9q10 10 28 25q8 7 13 0q57 -75 117 -155z" />
    <glyph glyph-name="aacute" unicode="&#xe1;" horiz-adv-x="576" 
d="M520 11q0 -11 -9 -11h-33q-8 0 -8 10v82q-22 -45 -74.5 -73.5t-117.5 -28.5q-107 0 -175.5 72.5t-68.5 185.5q0 121 65 194t174 73q64 0 115 -27.5t82 -75.5v84q0 9 7 9h35q8 0 8 -7v-487zM473 252q0 97 -57 157t-138 60q-86 0 -139 -57t-53 -160q0 -90 56.5 -152.5
t135.5 -62.5q92 0 143.5 59.5t51.5 155.5zM367 677q-1 -2 -7 -8q-50 -52 -132 -118q-10 -7 -20 -2q-6 3 -2 9q60 80 117 155q5 7 13 0q24 -20 31 -27q4 -4 0 -9z" />
    <glyph glyph-name="acircumflex" unicode="&#xe2;" horiz-adv-x="576" 
d="M520 11q0 -11 -9 -11h-33q-8 0 -8 10v82q-22 -45 -74.5 -73.5t-117.5 -28.5q-107 0 -175.5 72.5t-68.5 185.5q0 121 65 194t174 73q64 0 115 -27.5t82 -75.5v84q0 9 7 9h35q8 0 8 -7v-487zM473 252q0 97 -57 157t-138 60q-86 0 -139 -57t-53 -160q0 -90 56.5 -152.5
t135.5 -62.5q92 0 143.5 59.5t51.5 155.5zM443 551q-1 -4 -10 -4h-19q-2 0 -8 3q-13 8 -44.5 34t-57.5 48l-25 23q-95 -92 -124 -106q-6 -2 -7 -2h-24q-6 0 -6 4q0 2 5 7q121 123 148 151q6 6 8 6q3 0 10 -7q128 -128 147 -148q7 -7 7 -9z" />
    <glyph glyph-name="atilde" unicode="&#xe3;" horiz-adv-x="576" 
d="M520 11q0 -11 -9 -11h-33q-8 0 -8 10v82q-22 -45 -74.5 -73.5t-117.5 -28.5q-107 0 -175.5 72.5t-68.5 185.5q0 121 65 194t174 73q64 0 115 -27.5t82 -75.5v84q0 9 7 9h35q8 0 8 -7v-487zM473 252q0 97 -57 157t-138 60q-86 0 -139 -57t-53 -160q0 -90 56.5 -152.5
t135.5 -62.5q92 0 143.5 59.5t51.5 155.5zM460 637q-2 -8 -14.5 -27.5t-41 -41t-60.5 -21.5q-13 0 -27 5t-22 10.5t-19 13.5t-12 9t-10.5 7.5t-15.5 9.5t-17 6.5t-22 3.5q-27 0 -59 -27q-24 -21 -27 -22q-6 -2 -6.5 -1.5t-0.5 8.5q0 22 35 57t81 35q29 0 74 -35l15 -10
q15 -10 26 -14.5t23 -4.5q33 0 63 26q27 23 29 24q8 2 9.5 -0.5t-1.5 -10.5z" />
    <glyph glyph-name="adieresis" unicode="&#xe4;" horiz-adv-x="576" 
d="M520 11q0 -11 -9 -11h-33q-8 0 -8 10v82q-22 -45 -74.5 -73.5t-117.5 -28.5q-107 0 -175.5 72.5t-68.5 185.5q0 121 65 194t174 73q64 0 115 -27.5t82 -75.5v84q0 9 7 9h35q8 0 8 -7v-487zM473 252q0 97 -57 157t-138 60q-86 0 -139 -57t-53 -160q0 -90 56.5 -152.5
t135.5 -62.5q92 0 143.5 59.5t51.5 155.5zM440 579q0 -10 -9 -10h-64q-7 0 -7 9v55q0 8 8 8h62q10 0 10 -11v-51zM235 579q0 -10 -9 -10h-63q-8 0 -8 9v55q0 8 9 8h60q11 0 11 -11v-51z" />
    <glyph glyph-name="aring" unicode="&#xe5;" horiz-adv-x="576" 
d="M520 11q0 -11 -9 -11h-33q-8 0 -8 10v82q-22 -45 -74.5 -73.5t-117.5 -28.5q-107 0 -175.5 72.5t-68.5 185.5q0 121 65 194t174 73q64 0 115 -27.5t82 -75.5v84q0 9 7 9h35q8 0 8 -7v-487zM473 252q0 97 -57 157t-138 60q-86 0 -139 -57t-53 -160q0 -90 56.5 -152.5
t135.5 -62.5q92 0 143.5 59.5t51.5 155.5zM402 670q0 -51 -36 -87t-87 -36t-87 36t-36 87t36 87t87 36t87 -36t36 -87zM363 670q0 35 -24.5 59t-59.5 24t-59.5 -24t-24.5 -59t24.5 -59t59.5 -24t59.5 24t24.5 59z" />
    <glyph glyph-name="ae" unicode="&#xe6;" horiz-adv-x="980" 
d="M953 285q0 -32 -10 -46q-4 -5 -16 -5h-405q6 -81 61 -143.5t142 -62.5q71 0 136 55q3 3 8 -1q15 -21 21 -31q4 -8 2 -9q-73 -59 -167 -59q-152 0 -226 140q-34 -66 -93 -99.5t-128 -33.5q-107 0 -175.5 72.5t-68.5 185.5q0 121 65 194t174 73q66 0 123 -32t77 -81v94
q0 9 7 9h35q8 0 8 -11v-85q15 51 68 81t124 30q108 0 173 -74t65 -161zM906 282q-3 78 -57 136t-134 58q-87 0 -137.5 -61t-54.5 -133h383zM473 252q0 96 -55.5 156.5t-139.5 60.5q-86 0 -139 -57t-53 -160q0 -90 56.5 -152.5t135.5 -62.5q92 0 143.5 59.5t51.5 155.5z" />
    <glyph glyph-name="ccedilla" unicode="&#xe7;" horiz-adv-x="578" 
d="M536 117q-29 -52 -78 -86.5t-111 -44.5q44 -26 44 -91q0 -50 -34 -84.5t-100 -34.5q-44 0 -78.5 22.5t-45.5 56.5q-2 7 4 10l28 11q3 1 5 -2q7 -25 32.5 -42t54.5 -17q93 0 93 88q0 53 -54 80q-115 2 -188.5 76.5t-73.5 191.5q0 118 74 193.5t193 75.5q79 0 140 -34.5
t93 -95.5q4 -8 -3 -12l-31 -17q-7 -4 -12 5q-27 49 -77.5 78t-110.5 29q-92 0 -153 -64t-61 -158q0 -93 61 -157t153 -64q62 0 113.5 32t79.5 82q3 6 10 1l29 -17q8 -5 4 -11z" />
    <glyph glyph-name="egrave" unicode="&#xe8;" horiz-adv-x="562" 
d="M528 285q0 -32 -10 -46q-4 -5 -16 -5h-415q3 -86 61.5 -145t153.5 -59q78 0 134 54q4 4 8 -1q15 -16 24 -30q5 -7 2 -9q-76 -61 -170 -61q-122 0 -194 73.5t-72 194.5q0 118 70.5 193.5t188.5 75.5q73 0 128.5 -38t81 -90.5t25.5 -106.5zM476 282q-4 79 -54 135.5
t-130 56.5q-82 0 -140.5 -56t-63.5 -136h388zM362 558q4 -6 -2 -9q-4 -2 -20 -2t-20 4q-15 15 -38 39t-45.5 48t-28.5 31q-8 8 -8 10q0 5 4 9q10 10 28 25q8 7 13 0q57 -75 117 -155z" />
    <glyph glyph-name="eacute" unicode="&#xe9;" horiz-adv-x="562" 
d="M528 285q0 -32 -10 -46q-4 -5 -16 -5h-415q3 -86 61.5 -145t153.5 -59q78 0 134 54q4 4 8 -1q15 -16 24 -30q5 -7 2 -9q-76 -61 -170 -61q-122 0 -194 73.5t-72 194.5q0 118 70.5 193.5t188.5 75.5q73 0 128.5 -38t81 -90.5t25.5 -106.5zM476 282q-4 79 -54 135.5
t-130 56.5q-82 0 -140.5 -56t-63.5 -136h388zM372 677q-1 -2 -7 -8q-50 -52 -132 -118q-10 -7 -20 -2q-6 3 -2 9q60 80 117 155q5 7 13 0q24 -20 31 -27q4 -4 0 -9z" />
    <glyph glyph-name="ecircumflex" unicode="&#xea;" horiz-adv-x="562" 
d="M528 285q0 -32 -10 -46q-4 -5 -16 -5h-415q3 -86 61.5 -145t153.5 -59q78 0 134 54q4 4 8 -1q15 -16 24 -30q5 -7 2 -9q-76 -61 -170 -61q-122 0 -194 73.5t-72 194.5q0 118 70.5 193.5t188.5 75.5q73 0 128.5 -38t81 -90.5t25.5 -106.5zM476 282q-4 79 -54 135.5
t-130 56.5q-82 0 -140.5 -56t-63.5 -136h388zM449 554q-1 -4 -10 -4h-19q-2 0 -8 3q-13 8 -44.5 34t-57.5 49l-25 22q-95 -92 -124 -106q-6 -2 -7 -2h-24q-6 0 -6 4q0 2 5 7q121 123 148 151q6 6 8 6q3 0 10 -7q128 -128 147 -148q7 -7 7 -9z" />
    <glyph glyph-name="edieresis" unicode="&#xeb;" horiz-adv-x="562" 
d="M528 285q0 -32 -10 -46q-4 -5 -16 -5h-415q3 -86 61.5 -145t153.5 -59q78 0 134 54q4 4 8 -1q15 -16 24 -30q5 -7 2 -9q-76 -61 -170 -61q-122 0 -194 73.5t-72 194.5q0 118 70.5 193.5t188.5 75.5q73 0 128.5 -38t81 -90.5t25.5 -106.5zM476 282q-4 79 -54 135.5
t-130 56.5q-82 0 -140.5 -56t-63.5 -136h388zM426 579q0 -10 -9 -10h-64q-7 0 -7 9v55q0 8 8 8h62q10 0 10 -11v-51zM221 579q0 -10 -9 -10h-63q-8 0 -8 9v55q0 8 9 8h60q11 0 11 -11v-51z" />
    <glyph glyph-name="igrave" unicode="&#xec;" horiz-adv-x="184" 
d="M118 10q0 -7 -1.5 -8.5t-7.5 -1.5h-33q-5 0 -6.5 0.5t-2.5 3t-1 9.5v484q0 8 8 8h34q7 0 8.5 -1.5t1.5 -6.5v-487zM165 558q4 -6 -2 -9q-4 -2 -20 -2t-20 4q-15 15 -38 39t-45.5 48t-28.5 31q-8 8 -8 10q0 5 4 9q10 10 28 25q8 7 13 0q57 -75 117 -155z" />
    <glyph glyph-name="iacute" unicode="&#xed;" horiz-adv-x="184" 
d="M118 10q0 -7 -1.5 -8.5t-7.5 -1.5h-33q-5 0 -6.5 0.5t-2.5 3t-1 9.5v484q0 8 8 8h34q7 0 8.5 -1.5t1.5 -6.5v-487zM175 677q-1 -2 -7 -8q-50 -52 -132 -118q-10 -7 -20 -2q-6 3 -2 9q60 80 117 155q5 7 13 0q24 -20 31 -27q4 -4 0 -9z" />
    <glyph glyph-name="icircumflex" unicode="&#xee;" horiz-adv-x="184" 
d="M118 10q0 -7 -1.5 -8.5t-7.5 -1.5h-33q-5 0 -6.5 0.5t-2.5 3t-1 9.5v484q0 8 8 8h34q7 0 8.5 -1.5t1.5 -6.5v-487zM255 554q-1 -4 -10 -4h-19q-2 0 -8 3q-13 8 -44.5 34t-57.5 49l-25 22q-95 -92 -124 -106q-6 -2 -7 -2h-24q-6 0 -6 4q0 2 5 7q121 123 148 151q6 6 8 6
q3 0 10 -7q128 -128 147 -148q7 -7 7 -9z" />
    <glyph glyph-name="idieresis" unicode="&#xef;" horiz-adv-x="184" 
d="M201 577q0 -10 -9 -10h-64q-7 0 -7 9v55q0 8 8 8h62q10 0 10 -11v-51zM56 577q0 -10 -9 -10h-63q-8 0 -8 9v55q0 8 9 8h60q11 0 11 -11v-51zM118 10q0 -7 -1.5 -8.5t-7.5 -1.5h-33q-5 0 -6.5 0.5t-2.5 3t-1 9.5v484q0 8 8 8h34q7 0 8.5 -1.5t1.5 -6.5v-487z" />
    <glyph glyph-name="eth" unicode="&#xf0;" horiz-adv-x="602" 
d="M568 251q0 -118 -75.5 -193t-193.5 -75q-116 0 -190.5 74.5t-74.5 193.5q0 129 88.5 207t219.5 59q-27 26 -61.5 59l-57.5 55t-28 27q-7 7 -7.5 9.5t4.5 9.5q2 4 11.5 12t11.5 11q7 7 16 0q5 -5 154 -151q17 18 63.5 67.5t53.5 56.5t12 2q15 -14 26 -30q6 -5 -1 -12
q-19 -20 -114 -123q8 -9 35 -35.5t39 -37.5q69 -69 69 -186zM517 251q0 93 -63 157.5t-155 64.5q-91 0 -152.5 -64.5t-61.5 -157.5q0 -92 61.5 -156.5t152.5 -64.5q92 0 155 64.5t63 156.5z" />
    <glyph glyph-name="ntilde" unicode="&#xf1;" horiz-adv-x="518" 
d="M466 14q0 -14 -7 -14h-36q-4 0 -5.5 0.5t-2.5 2.5t-1 7v322q0 134 -133 134q-67 0 -113.5 -38.5t-59.5 -101.5v-316q0 -10 -4 -10h-41q-5 0 -6 2t-1 10v486q0 7 7 7h35q6 0 7.5 -1t1.5 -8v-78q27 46 74.5 71.5t101.5 25.5q82 0 132.5 -43t50.5 -131v-327zM454 657
q-2 -8 -14.5 -27.5t-41 -41t-60.5 -21.5q-13 0 -27 5t-22 10.5t-19 13.5t-12 9t-10.5 7.5t-15.5 9.5t-17 6.5t-22 3.5q-27 0 -59 -27q-24 -21 -27 -22q-6 -2 -6.5 -1.5t-0.5 8.5q0 22 35 57t81 35q29 0 74 -35l15 -10q15 -10 26 -14.5t23 -4.5q33 0 63 26q27 23 29 24
q8 2 9.5 -0.5t-1.5 -10.5z" />
    <glyph glyph-name="ograve" unicode="&#xf2;" horiz-adv-x="602" 
d="M568 251q0 -118 -74.5 -193t-192.5 -75q-116 0 -191.5 75t-75.5 193q0 117 74.5 193t192.5 76t192.5 -74.5t74.5 -194.5zM515 251q0 93 -61.5 157.5t-152.5 64.5q-92 0 -153 -63t-61 -159q0 -92 61.5 -156.5t152.5 -64.5q93 0 153.5 63t60.5 158zM382 554q4 -6 -2 -9
q-4 -2 -20 -2t-20 4q-15 15 -38 39t-45.5 48t-28.5 31q-8 8 -8 10q0 5 4 9q10 10 28 25q8 7 13 0q57 -75 117 -155z" />
    <glyph glyph-name="oacute" unicode="&#xf3;" horiz-adv-x="602" 
d="M568 251q0 -118 -74.5 -193t-192.5 -75q-116 0 -191.5 75t-75.5 193q0 117 74.5 193t192.5 76t192.5 -74.5t74.5 -194.5zM515 251q0 93 -61.5 157.5t-152.5 64.5q-92 0 -153 -63t-61 -159q0 -92 61.5 -156.5t152.5 -64.5q93 0 153.5 63t60.5 158zM389 679q-1 -2 -7 -8
q-50 -52 -132 -118q-10 -7 -20 -2q-6 3 -2 9q60 80 117 155q5 7 13 0q24 -20 31 -27q4 -4 0 -9z" />
    <glyph glyph-name="ocircumflex" unicode="&#xf4;" horiz-adv-x="602" 
d="M568 251q0 -118 -74.5 -193t-192.5 -75q-116 0 -191.5 75t-75.5 193q0 117 74.5 193t192.5 76t192.5 -74.5t74.5 -194.5zM515 251q0 93 -61.5 157.5t-152.5 64.5q-92 0 -153 -63t-61 -159q0 -92 61.5 -156.5t152.5 -64.5q93 0 153.5 63t60.5 158zM464 554q-1 -4 -10 -4
h-19q-2 0 -8 3q-13 8 -44.5 34t-56.5 49l-26 22q-95 -92 -124 -106q-6 -2 -7 -2h-24q-6 0 -6 4q0 2 5 7q121 123 148 151q6 6 8 6q3 0 10 -7q128 -128 147 -148q7 -7 7 -9z" />
    <glyph glyph-name="otilde" unicode="&#xf5;" horiz-adv-x="602" 
d="M568 251q0 -118 -74.5 -193t-192.5 -75q-116 0 -191.5 75t-75.5 193q0 117 74.5 193t192.5 76t192.5 -74.5t74.5 -194.5zM515 251q0 93 -61.5 157.5t-152.5 64.5q-92 0 -153 -63t-61 -159q0 -92 61.5 -156.5t152.5 -64.5q93 0 153.5 63t60.5 158zM491 655
q-2 -8 -14.5 -27.5t-41 -41t-60.5 -21.5q-13 0 -27 5t-22 10.5t-19 13.5t-12 9t-10.5 7.5t-15.5 9.5t-17 6.5t-22 3.5q-27 0 -59 -27q-25 -21 -27 -22q-6 -2 -6.5 -1.5t-0.5 8.5q0 22 35 57t81 35q29 0 74 -35l15 -10q15 -10 26 -14.5t23 -4.5q33 0 63 26q27 23 29 24
q8 2 9.5 -0.5t-1.5 -10.5z" />
    <glyph glyph-name="odieresis" unicode="&#xf6;" horiz-adv-x="602" 
d="M568 251q0 -118 -74.5 -193t-192.5 -75q-116 0 -191.5 75t-75.5 193q0 117 74.5 193t192.5 76t192.5 -74.5t74.5 -194.5zM515 251q0 93 -61.5 157.5t-152.5 64.5q-92 0 -153 -63t-61 -159q0 -92 61.5 -156.5t152.5 -64.5q93 0 153.5 63t60.5 158zM441 579q0 -10 -9 -10
h-64q-7 0 -7 9v55q0 8 8 8h62q10 0 10 -11v-51zM236 579q0 -10 -9 -10h-63q-8 0 -8 9v55q0 8 9 8h60q11 0 11 -11v-51z" />
    <glyph glyph-name="divide" unicode="&#xf7;" 
d="M793 300q0 -154 -109.5 -263.5t-263.5 -109.5t-263.5 109.5t-109.5 263.5t109.5 263.5t263.5 109.5t263.5 -109.5t109.5 -263.5zM693 491l-48 -29l-9 78l-65 -109l-127 53l23 54l40 40l-103 33l-106 -73l82 -13l2 -49l-107 -51l-100 97l9 -104l-48 33l73 -189l193 38
l-127 -224l21 -51l48 24l67 220l-26 -218l46 -36l36 41l-25 215l63 -209l57 -9l16 43l-129 206l193 -22zM478 573l-32 -35l-35 -68l-13 48l12 17l-68 11l26 13l17 -5l-1 19l28 19zM658 436l-30 -128l-35 38l-38 -26l-28 30l-31 -20l-45 40l-35 -47l-52 44l-22 -53l-37 28
l-12 -35l-38 29l-34 -39l-38 91l33 -14l11 58l38 -48l128 53l21 -52l16 62l148 -56l47 59l8 -40zM559 94l-32 -18l-30 100zM448 53l-40 1l18 142zM353 160l-28 -107l-29 17z" />
    <glyph glyph-name="oslash" unicode="&#xf8;" horiz-adv-x="602" 
d="M580 445q-22 -18 -53 -42q41 -66 41 -152q0 -118 -75.5 -193t-193.5 -75q-124 0 -198 82q-44 -36 -65 -53q-5 -5 -12 4q-12 14 -18 23q-5 7 2 12q61 48 65 51q-39 66 -39 149q0 117 73.5 193t191.5 76q124 0 199 -80q10 9 53 43q4 4 12 -5q12 -14 17 -22t0 -11zM456 406
q-62 67 -157 67q-91 0 -152.5 -64.5t-61.5 -157.5q0 -63 30 -115q36 28 159.5 126t181.5 144zM517 251q0 66 -33 119q-208 -164 -342 -271q61 -69 157 -69q92 0 155 64.5t63 156.5z" />
    <glyph glyph-name="ugrave" unicode="&#xf9;" horiz-adv-x="518" 
d="M463 9q0 -9 -6 -9h-36q-6 0 -7.5 1.5t-1.5 10.5v76q-20 -41 -71.5 -69.5t-105.5 -28.5q-80 0 -129.5 48.5t-49.5 138.5v317q0 7 1 9t6 2h36q5 0 6.5 -1.5t1.5 -9.5v-308q0 -66 35.5 -106.5t98.5 -40.5q59 0 108.5 42t62.5 104v310q0 10 6 10h36q7 0 8 -1.5t1 -9.5v-485z
M350 559q4 -6 -2 -9q-4 -2 -20 -2t-20 4q-15 15 -38 39t-45.5 48t-28.5 31q-8 8 -8 10q0 5 4 9q10 10 28 25q8 7 13 0q57 -75 117 -155z" />
    <glyph glyph-name="uacute" unicode="&#xfa;" horiz-adv-x="518" 
d="M463 9q0 -9 -6 -9h-36q-6 0 -7.5 1.5t-1.5 10.5v76q-20 -41 -71.5 -69.5t-105.5 -28.5q-80 0 -129.5 48.5t-49.5 138.5v317q0 7 1 9t6 2h36q5 0 6.5 -1.5t1.5 -9.5v-308q0 -66 35.5 -106.5t98.5 -40.5q59 0 108.5 42t62.5 104v310q0 10 6 10h36q7 0 8 -1.5t1 -9.5v-485z
M347 678q-1 -2 -7 -8q-50 -52 -132 -118q-10 -7 -20 -2q-6 3 -2 9q60 80 117 155q5 6 13 0q24 -20 31 -27q4 -4 0 -9z" />
    <glyph glyph-name="ucircumflex" unicode="&#xfb;" horiz-adv-x="518" 
d="M463 9q0 -9 -6 -9h-36q-6 0 -7.5 1.5t-1.5 10.5v76q-20 -41 -71.5 -69.5t-105.5 -28.5q-80 0 -129.5 48.5t-49.5 138.5v317q0 7 1 9t6 2h36q5 0 6.5 -1.5t1.5 -9.5v-308q0 -66 35.5 -106.5t98.5 -40.5q59 0 108.5 42t62.5 104v310q0 10 6 10h36q7 0 8 -1.5t1 -9.5v-485z
M424 554q-1 -4 -10 -4h-19q-2 0 -8 3q-13 8 -44.5 34t-56.5 49l-26 22q-95 -92 -124 -106q-6 -2 -7 -2h-24q-6 0 -6 4q0 2 5 7q121 123 148 151q6 6 8 6q3 0 10 -7q128 -128 147 -148q7 -7 7 -9z" />
    <glyph glyph-name="udieresis" unicode="&#xfc;" horiz-adv-x="518" 
d="M463 9q0 -9 -6 -9h-36q-6 0 -7.5 1.5t-1.5 10.5v76q-20 -41 -71.5 -69.5t-105.5 -28.5q-80 0 -129.5 48.5t-49.5 138.5v317q0 7 1 9t6 2h36q5 0 6.5 -1.5t1.5 -9.5v-308q0 -66 35.5 -106.5t98.5 -40.5q59 0 108.5 42t62.5 104v310q0 10 6 10h36q7 0 8 -1.5t1 -9.5v-485z
M403 579q0 -10 -9 -10h-64q-7 0 -7 9v55q0 8 8 8h62q10 0 10 -11v-51zM198 579q0 -10 -9 -10h-63q-8 0 -8 9v55q0 8 9 8h60q11 0 11 -11v-51z" />
    <glyph glyph-name="yacute" unicode="&#xfd;" horiz-adv-x="438" 
d="M435 495q-100 -265 -253 -654q-3 -7 -8 -7h-38q-10 0 -6 10q18 43 39 94t33 81t14 34q-62 125 -214 443q-3 6 -1.5 7.5t8.5 1.5h42q5 0 9 -8q165 -354 182 -385q22 68 139 385q2 8 11 8h39q7 0 4 -10zM325 676q-1 -2 -7 -8q-50 -52 -132 -118q-10 -7 -20 -2q-6 3 -2 9
q60 80 117 155q5 6 13 0q24 -20 31 -27q4 -4 0 -9z" />
    <glyph glyph-name="thorn" unicode="&#xfe;" horiz-adv-x="577" 
d="M543 260q0 -120 -66.5 -194.5t-175.5 -74.5q-62 0 -113 28t-81 73v-246q0 -12 -8 -12h-37q-6 0 -6 10v826q0 8 6 8h34q11 0 11 -11v-252q19 45 71.5 72.5t117.5 27.5q108 0 177.5 -71.5t69.5 -183.5zM491 256q0 91 -57.5 151t-137.5 60q-92 0 -142 -57.5t-50 -153.5
q0 -97 56 -157.5t136 -60.5q86 0 140.5 58t54.5 160z" />
    <glyph glyph-name="ydieresis" unicode="&#xff;" horiz-adv-x="438" 
d="M435 495q-100 -265 -253 -654q-3 -7 -8 -7h-38q-10 0 -6 10q18 43 39 94t33 81t14 34q-62 125 -214 443q-3 6 -1.5 7.5t8.5 1.5h42q5 0 9 -8q165 -354 182 -385q22 68 139 385q2 8 11 8h39q7 0 4 -10zM366 581q0 -10 -9 -10h-64q-7 0 -7 9v55q0 8 8 8h62q10 0 10 -11v-51
zM161 581q0 -10 -9 -10h-63q-8 0 -8 9v55q0 8 9 8h60q11 0 11 -11v-51z" />
    <glyph glyph-name="dotlessi" unicode="&#x131;" horiz-adv-x="184" 
d="M118 10q0 -7 -1.5 -8.5t-7.5 -1.5h-33q-5 0 -6.5 0.5t-2.5 3t-1 9.5v484q0 8 8 8h34q7 0 8.5 -1.5t1.5 -6.5v-487z" />
    <glyph glyph-name="Lslash" unicode="&#x141;" horiz-adv-x="489" 
d="M477 11q0 -11 -5 -11h-397q-7 0 -7 8v235l-49 -28q-12 -6 -18 3q-3 6 -6.5 12t-4.5 8q-6 10 7 17q1 0 28 15.5t43 25.5v376q0 4 1 5t6 1h44q5 0 5 -7v-343q25 14 79 46t75 44q10 5 13 -1q2 -2 5.5 -11t6.5 -15q4 -8 3.5 -9.5t-7.5 -6.5q-8 -5 -72 -41t-103 -59v-223h347
q6 0 6 -9v-32z" />
    <glyph glyph-name="lslash" unicode="&#x142;" horiz-adv-x="199" 
d="M193 362q4 -8 3.5 -9.5t-7.5 -6.5q-10 -6 -31.5 -17.5t-30.5 -16.5v-302q0 -10 -8 -10h-35q-8 0 -8 13v271q-32 -18 -49 -28q-12 -7 -18 3q-1 2 -4 7t-5 8q-6 10 7 17q8 4 22.5 12.5t26 15t20.5 11.5v353q0 7 1.5 8t8.5 1h32q9 0 9 -9v-325q6 4 20.5 12.5t20.5 11.5
q10 7 17 -5q3 -5 8 -15z" />
    <glyph glyph-name="OE" unicode="&#x152;" horiz-adv-x="760" 
d="M733 12q0 -8 -1.5 -10t-9.5 -2h-243q-17 0 -40 -1t-39.5 -2t-18.5 -1q-144 0 -242.5 99.5t-98.5 241.5t98.5 242.5t242.5 100.5h7q6 0 16.5 -0.5t23 -1t26.5 -0.5h25h240q6 0 7.5 -2t1.5 -9v-27q0 -14 -9 -14h-282v-255h274q7 0 8.5 -2t1.5 -8v-30q0 -12 -10 -12h-275
v-267h286q7 0 9 -2.5t2 -10.5v-27zM381 46v583q-119 0 -202.5 -86.5t-83.5 -205.5t84 -205t202 -86z" />
    <glyph glyph-name="oe" unicode="&#x153;" horiz-adv-x="1014" 
d="M991 285q0 -32 -10 -46q-4 -5 -16 -5h-405q6 -81 61 -143.5t142 -62.5q71 0 136 55q3 3 8 -1q15 -21 21 -31q4 -8 2 -9q-73 -59 -167 -59q-82 0 -141.5 37.5t-88.5 105.5q-30 -67 -91 -105t-143 -38q-116 0 -190.5 74.5t-74.5 193.5q0 117 73.5 193t191.5 76
q82 0 143 -37t90 -104q27 67 83 104t138 37q108 0 173 -74t65 -161zM944 282q-3 77 -56.5 135.5t-134.5 58.5q-80 0 -133.5 -56.5t-58.5 -137.5h383zM507 251q0 94 -58.5 158t-149.5 64t-152.5 -64.5t-61.5 -157.5q0 -92 61.5 -156.5t152.5 -64.5t149.5 64t58.5 157z" />
    <glyph glyph-name="Scaron" unicode="&#x160;" horiz-adv-x="611" 
d="M560 177q0 -96 -64 -145t-180 -49q-98 0 -167.5 39t-97.5 110q-4 11 -3.5 13.5t7.5 4.5l37 13q8 4 11 -5q21 -59 76.5 -92.5t132.5 -33.5q95 0 144.5 34.5t49.5 98.5t-45 95.5t-141 52.5q-4 1 -19 4t-19 4q-104 24 -158 66t-54 120q0 84 62.5 134.5t176.5 50.5
q95 0 155 -42t84 -109q4 -12 -6 -16l-30 -13q-8 -5 -11 3q-47 128 -194 128q-93 0 -138 -35t-45 -94q0 -58 45 -90.5t130 -50.5q18 -4 38 -8q50 -11 87.5 -24.5t69.5 -35t49 -54t17 -74.5zM466 883q0 -2 -6 -8q-64 -65 -147 -151q-6 -6 -8 -6q-3 0 -10 7q-128 128 -147 148
q-7 7 -7 9q1 4 10 4h29q10 0 15 -5l110 -95q95 81 109 95q4 5 12 5h34q6 0 6 -3z" />
    <glyph glyph-name="scaron" unicode="&#x161;" horiz-adv-x="464" 
d="M427 135q0 -75 -50 -113.5t-137 -38.5q-147 0 -198 118q-5 12 4 16l29 12q8 4 10.5 3t5.5 -8q40 -94 150 -94q65 0 99 24t34 69q0 40 -28 66.5t-114 44.5q-93 19 -132.5 51t-39.5 100q0 63 46 100t132 37q134 0 180 -113q4 -11 -8 -16l-25 -12q-9 -4 -15 10
q-35 84 -134 84q-65 0 -94.5 -24.5t-29.5 -64.5t30.5 -63t103.5 -37q181 -35 181 -151zM391 712q0 -2 -6 -8q-64 -65 -147 -151q-6 -6 -8 -6q-3 0 -10 7q-128 128 -147 148q-7 7 -7 9q1 4 10 4h29q10 0 15 -5l110 -95q95 81 109 95q4 5 12 5h34q6 0 6 -3z" />
    <glyph glyph-name="Ydieresis" unicode="&#x178;" horiz-adv-x="569" 
d="M433 737q0 -10 -9 -10h-64q-7 0 -7 9v55q0 8 8 8h62q10 0 10 -11v-51zM208 737q0 -10 -9 -10h-63q-8 0 -8 9v55q0 8 9 8h60q11 0 11 -11v-51zM566 666l-254 -410v-243q0 -9 -1.5 -11t-9.5 -2h-37q-8 0 -8 11v245q-201 325 -255 412q-3 5 -1 7.5t12 2.5h36q8 0 14 -9
l222 -358q179 288 222 355q8 12 13 12h40q14 0 7 -12z" />
    <glyph glyph-name="Zcaron" unicode="&#x17d;" horiz-adv-x="544" 
d="M526 660l-441 -610h432q8 0 8 -11v-28q0 -11 -8 -11h-509q-5 0 -5.5 10t2.5 13l438 609h-404q-8 0 -10.5 1.5t-2.5 7.5v24q0 8 1.5 10.5t7.5 2.5h489q5 0 5 -7t-3 -11zM454 882q0 -2 -6 -8q-64 -65 -147 -151q-6 -6 -8 -6q-3 0 -10 7q-128 128 -147 148q-7 7 -7 9
q1 4 10 4h29q10 0 15 -5l110 -95q95 81 109 95q4 5 12 5h34q6 0 6 -3z" />
    <glyph glyph-name="zcaron" unicode="&#x17e;" horiz-adv-x="429" 
d="M423 495l-342 -450h318q12 0 12 -6v-31q0 -8 -12 -8h-389q-6 0 -7 9t3 13l328 437h-304q-4 0 -4 7v33q0 4 1.5 5t9.5 1h384q2 0 3 -4t-1 -6zM397 712q0 -2 -6 -8q-64 -65 -147 -151q-6 -6 -8 -6q-3 0 -10 7q-128 128 -147 148q-7 7 -7 9q1 4 10 4h29q10 0 15 -5l110 -95
q95 81 109 95q4 5 12 5h34q6 0 6 -3z" />
    <glyph glyph-name="florin" unicode="&#x192;" horiz-adv-x="376" 
d="M330 365q0 -6 -2.5 -8t-10.5 -2h-119v-363q0 -73 -20.5 -108t-66.5 -35q-30 0 -60 12q-10 3 -9 15l1.5 9l1 6t1.5 7q2 10 5 12t14 0q21 -4 39 -5.5t30 14.5t12 50v386h-85q-9 0 -11 2.5t-2 9.5v30q0 6 2.5 8t10.5 2h85v142q0 51 31 90t92 39h54q5 0 6 -1.5t1 -6.5v-2v-32
q0 -9 -8 -9h-8q-26 0 -40 -0.5t-31.5 -6.5t-25.5 -17q-15 -21 -17 -47t-2 -149h119q8 0 10.5 -2t2.5 -10v-30z" />
    <glyph glyph-name="circumflex" unicode="&#x2c6;" horiz-adv-x="400" 
d="M371 554q-1 -4 -10 -4h-19q-2 0 -8 3q-13 8 -44.5 34t-57.5 49l-25 22q-95 -92 -124 -106q-6 -2 -7 -2h-24q-6 0 -6 4q0 2 5 7q121 123 148 151q6 6 8 6q3 0 10 -7q128 -128 147 -148q7 -7 7 -9z" />
    <glyph glyph-name="caron" unicode="&#x2c7;" horiz-adv-x="400" 
d="M370 694q0 -2 -6 -8q-64 -65 -147 -151q-6 -6 -8 -6q-3 0 -10 7q-128 128 -147 148q-7 7 -7 9q1 4 10 4h29q10 0 15 -5l110 -95q95 81 109 95q4 5 12 5h34q6 0 6 -3z" />
    <glyph glyph-name="breve" unicode="&#x2d8;" horiz-adv-x="400" 
d="M365 656q7 -6 -2 -18q-29 -40 -65 -58t-96 -18q-104 0 -162 78q-10 11 -1 18q13 11 24 19q8 8 16 -1q22 -29 55.5 -47t67.5 -18q78 0 120 64q2 3 7.5 3t8.5 -2q22 -16 27 -20z" />
    <glyph glyph-name="dotaccent" unicode="&#x2d9;" horiz-adv-x="400" 
d="M218 582q0 -11 -13 -11h-50q-8 0 -8 10v53q0 9 9 9h48q14 0 14 -12v-49z" />
    <glyph glyph-name="ring" unicode="&#x2da;" horiz-adv-x="400" 
d="M334 658q0 -51 -36 -87t-87 -36t-87 36t-36 87t36 87t87 36t87 -36t36 -87zM295 658q0 35 -24.5 59t-59.5 24t-59.5 -24t-24.5 -59t24.5 -59t59.5 -24t59.5 24t24.5 59z" />
    <glyph glyph-name="ogonek" unicode="&#x2db;" horiz-adv-x="400" 
d="M341 -145q-26 -79 -124 -79q-69 0 -106.5 34t-37.5 85q0 37 31 71t87 34h49q-33 0 -77.5 -25t-44.5 -72q0 -38 28.5 -60.5t70.5 -22.5q28 0 51 16.5t31 40.5q2 3 5 2l33 -14q5 -3 4 -10z" />
    <glyph glyph-name="tilde" unicode="&#x2dc;" horiz-adv-x="400" 
d="M398 661q-2 -8 -14.5 -27.5t-41 -41t-60.5 -21.5q-13 0 -27 5t-22 10.5t-19 13.5t-12 9t-10.5 7.5t-15.5 9.5t-17 6.5t-22 3.5q-27 0 -59 -27q-24 -21 -27 -22q-6 -2 -6.5 -1.5t-0.5 8.5q0 22 35 57t81 35q29 0 74 -35l15 -10q15 -10 26 -14.5t23 -4.5q33 0 63 26
q27 23 29 24q8 2 9.5 -0.5t-1.5 -10.5z" />
    <glyph glyph-name="hungarumlaut" unicode="&#x2dd;" horiz-adv-x="400" 
d="M373 678q8 -8 -4 -19q-19 -18 -132 -98q-11 -8 -21 -1q-5 3 -1 8q0 1 23.5 32.5t49.5 66.5t34 46q5 6 13 0q18 -15 38 -35zM203 678q9 -9 -4 -19q-89 -63 -132 -98q-11 -8 -21 -1q-5 3 -1 8q0 1 23.5 32.5t49.5 66.5t34 46q5 6 13 0q18 -15 38 -35z" />
    <glyph glyph-name="Delta" unicode="&#x394;" 
d="M793 300q0 -154 -109.5 -263.5t-263.5 -109.5t-263.5 109.5t-109.5 263.5t109.5 263.5t263.5 109.5t263.5 -109.5t109.5 -263.5zM693 491l-48 -29l-9 78l-65 -109l-127 53l23 54l40 40l-103 33l-106 -73l82 -13l2 -49l-107 -51l-100 97l9 -104l-48 33l73 -189l193 38
l-127 -224l21 -51l48 24l67 220l-26 -218l46 -36l36 41l-25 215l63 -209l57 -9l16 43l-129 206l193 -22zM478 573l-32 -35l-35 -68l-13 48l12 17l-68 11l26 13l17 -5l-1 19l28 19zM658 436l-30 -128l-35 38l-38 -26l-28 30l-31 -20l-45 40l-35 -47l-52 44l-22 -53l-37 28
l-12 -35l-38 29l-34 -39l-38 91l33 -14l11 58l38 -48l128 53l21 -52l16 62l148 -56l47 59l8 -40zM559 94l-32 -18l-30 100zM448 53l-40 1l18 142zM353 160l-28 -107l-29 17z" />
    <glyph glyph-name="Omega" unicode="&#x3a9;" 
d="M793 300q0 -154 -109.5 -263.5t-263.5 -109.5t-263.5 109.5t-109.5 263.5t109.5 263.5t263.5 109.5t263.5 -109.5t109.5 -263.5zM693 491l-48 -29l-9 78l-65 -109l-127 53l23 54l40 40l-103 33l-106 -73l82 -13l2 -49l-107 -51l-100 97l9 -104l-48 33l73 -189l193 38
l-127 -224l21 -51l48 24l67 220l-26 -218l46 -36l36 41l-25 215l63 -209l57 -9l16 43l-129 206l193 -22zM478 573l-32 -35l-35 -68l-13 48l12 17l-68 11l26 13l17 -5l-1 19l28 19zM658 436l-30 -128l-35 38l-38 -26l-28 30l-31 -20l-45 40l-35 -47l-52 44l-22 -53l-37 28
l-12 -35l-38 29l-34 -39l-38 91l33 -14l11 58l38 -48l128 53l21 -52l16 62l148 -56l47 59l8 -40zM559 94l-32 -18l-30 100zM448 53l-40 1l18 142zM353 160l-28 -107l-29 17z" />
    <glyph glyph-name="pi" unicode="&#x3c0;" horiz-adv-x="839" 
d="M811 308q0 -162 -115 -277t-277 -115t-277 115t-115 277t115 277t277 115t277 -115t115 -277zM771 308q0 146 -103.5 249t-248.5 103t-248.5 -103t-103.5 -249t103.5 -249t248.5 -103t248.5 103t103.5 249zM591 385q0 -57 -39 -92.5t-97 -35.5h-112v-134q0 -16 -13 -16
h-18q-10 0 -11.5 2t-1.5 14v378q0 5 0.5 8t2.5 4l3 1.5t3.5 0t3.5 -0.5h143q61 0 98.5 -36.5t37.5 -92.5zM548 387q0 43 -25 65.5t-68 22.5h-112v-179h113q45 0 68.5 25.5t23.5 65.5z" />
    <glyph glyph-name="endash" unicode="&#x2013;" horiz-adv-x="410" 
d="M410 333q0 -8 -2.5 -10t-11.5 -2h-384q-8 0 -10 2.5t-2 9.5v23q0 8 2.5 10t9.5 2h384q9 0 11.5 -2t2.5 -10v-23z" />
    <glyph glyph-name="emdash" unicode="&#x2014;" horiz-adv-x="819" 
d="M819 333q0 -8 -2 -10t-11 -2h-794q-8 0 -10 2t-2 10v23q0 8 2 10t10 2h794q9 0 11 -2t2 -10v-23z" />
    <glyph glyph-name="quoteleft" unicode="&#x2018;" horiz-adv-x="100" 
d="M82 526q0 -13 -4 -13q-5 0 -8 9q-23 46 -68 141q-2 6 -2 9q0 6 4 6h72q6 0 6 -10v-142z" />
    <glyph glyph-name="quoteright" unicode="&#x2019;" horiz-adv-x="100" 
d="M101 671q0 -2 -2 -8q-42 -88 -68 -141q-3 -9 -8 -9q-4 0 -4 13v142q0 10 6 10h72q4 0 4 -7z" />
    <glyph glyph-name="quotesinglbase" unicode="&#x201a;" horiz-adv-x="100" 
d="M107 51q0 -3 -2 -9q-31 -67 -68 -141q-3 -9 -8 -9q-4 0 -4 13v142q0 10 6 10h72q4 0 4 -6z" />
    <glyph glyph-name="quotedblleft" unicode="&#x201c;" horiz-adv-x="206" 
d="M188 526q0 -13 -4 -13q-5 0 -8 9q-25 49 -68 141q-2 6 -2 9q0 6 4 6h72q6 0 6 -10v-142zM82 526q0 -13 -4 -13q-5 0 -8 9q-25 49 -68 141q-2 6 -2 9q0 6 4 6h72q6 0 6 -10v-142z" />
    <glyph glyph-name="quotedblright" unicode="&#x201d;" horiz-adv-x="206" 
d="M206 672q0 -3 -2 -9q-10 -21 -23 -48.5t-23.5 -49t-21.5 -43.5q-3 -9 -8 -9q-4 0 -4 13v142q0 10 6 10h72q4 0 4 -6zM100 672q0 -3 -2 -9q-67 -140 -68 -141q-3 -9 -8 -9q-4 0 -4 13v142q0 10 6 10h72q4 0 4 -6z" />
    <glyph glyph-name="quotedblbase" unicode="&#x201e;" horiz-adv-x="206" 
d="M213 52q0 -3 -2 -9q-45 -95 -68 -141q-3 -9 -8 -9q-4 0 -4 13v142q0 10 6 10h72q4 0 4 -6zM107 52q0 -3 -2 -9q-33 -70 -68 -141q-3 -9 -8 -9q-4 0 -4 13v142q0 10 6 10h72q4 0 4 -6z" />
    <glyph glyph-name="dagger" unicode="&#x2020;" horiz-adv-x="547" 
d="M525 409q0 -3 -5 -3q-88 4 -217 4q0 -11 -4 -277t-4 -293q0 -5 -4 -5h-35q-2 0 -2 5q0 20 -5 290.5t-5 280.5q-142 0 -217 -5q-3 0 -3 3v42q0 3 3 3q46 -2 218 -2q5 105 5 231q0 3 3 3h42q3 0 3 -3q0 -189 4 -233q10 0 108.5 2t109.5 2q5 0 5 -3v-42z" />
    <glyph glyph-name="daggerdbl" unicode="&#x2021;" horiz-adv-x="565" 
d="M500 120q0 -3 -5 -3q-11 0 -97 2t-96 2q-4 -44 -4 -233q0 -4 -3 -4h-42q-3 0 -3 4q0 126 -5 231q-4 0 -76.5 -1t-116.5 -1q-3 0 -3 3v42q0 3 3 3q75 -5 192 -5v251q-117 0 -192 -5q-3 0 -3 3v42q0 2 3 2q44 0 116.5 -0.5t76.5 -0.5q5 105 5 231q0 3 3 3h42q3 0 3 -3
q0 -189 4 -233q10 0 96 2t97 2q5 0 5 -3v-42q0 -3 -5 -3q-88 4 -192 4v-249q104 0 192 4q5 0 5 -3v-42z" />
    <glyph glyph-name="bullet" unicode="&#x2022;" horiz-adv-x="640" 
d="M613 286q0 -122 -86.5 -208.5t-208.5 -86.5t-208.5 86.5t-86.5 208.5t86.5 209t208.5 87t208.5 -87t86.5 -209z" />
    <glyph glyph-name="ellipsis" unicode="&#x2026;" horiz-adv-x="555" 
d="M510 13q0 -8 -2 -10.5t-11 -2.5h-50q-7 0 -9.5 2t-2.5 10v53q0 10 11 10h55q7 0 8 -1.5t1 -9.5v-51zM314 13q0 -8 -2 -10.5t-11 -2.5h-50q-7 0 -9.5 2t-2.5 10v53q0 10 11 10h55q7 0 8 -1.5t1 -9.5v-51zM118 13q0 -8 -2 -10.5t-11 -2.5h-50q-7 0 -9.5 2t-2.5 10v53
q0 10 11 10h55q7 0 8 -1.5t1 -9.5v-51z" />
    <glyph glyph-name="perthousand" unicode="&#x2030;" horiz-adv-x="1251" 
d="M1215 174q0 -78 -51.5 -129.5t-133.5 -51.5q-84 0 -138.5 51.5t-54.5 129.5q0 77 54 130t136 53q84 0 136 -52.5t52 -130.5zM801 174q0 -78 -51.5 -129.5t-133.5 -51.5q-84 0 -138.5 51.5t-54.5 129.5q0 77 54 130t136 53q84 0 136 -52.5t52 -130.5zM710 655
q-149 -176 -335 -407.5t-196 -253.5q-14 1 -30.5 13t-15.5 22q123 141 312.5 376t222.5 281q9 -6 42 -31zM401 497q0 -78 -52 -129.5t-135 -51.5q-82 0 -136.5 52.5t-54.5 128.5q0 77 53.5 129t136.5 52q84 0 136 -51.5t52 -129.5zM1168 170q0 57 -38 100t-103 43
t-104 -43.5t-39 -99.5t37 -96t106 -40q65 0 103 40.5t38 95.5zM754 170q0 57 -38 100t-103 43t-104 -43.5t-39 -99.5t37 -96t106 -40q65 0 103 40.5t38 95.5zM352 497q0 57 -38 99t-103 42t-103 -42t-38 -99t36 -96.5t105 -39.5q66 0 103.5 40t37.5 96z" />
    <glyph glyph-name="guilsinglleft" unicode="&#x2039;" horiz-adv-x="289" 
d="M259 15q0 -7 -5 -7q-4 0 -8 4q-153 146 -230 229q-4 4 -4 10q0 7 4 11q96 102 230 232q3 3 9 0q4 -4 4 -9v-32q0 -12 -8 -20l-183 -182q144 -140 183 -179q8 -8 8 -19v-38z" />
    <glyph glyph-name="guilsinglright" unicode="&#x203a;" horiz-adv-x="289" 
d="M279 251q0 -6 -4 -10q-77 -83 -230 -229q-4 -4 -8 -4q-5 0 -5 7v38q0 11 8 19l183 179q-118 119 -183 182q-8 8 -8 20v32q0 5 4 9q6 3 9 0q134 -130 230 -232q4 -4 4 -11z" />
    <glyph glyph-name="fraction" unicode="&#x2044;" horiz-adv-x="331" 
d="M418 656q-277 -378 -508 -687q-9 -12 -13 -9q-19 15 -24 21q-4 6 -1 9q260 356 509 687q11 14 14 12q8 -5 20 -17q9 -9 3 -16z" />
    <glyph glyph-name="trademark" unicode="&#x2122;" horiz-adv-x="661" 
d="M627 347q1 -8 -0.5 -10.5t-6.5 -2.5h-27q-7 0 -8 13l-14 239l-109 -160q-11 -16 -23 1l-107 159l-13 -237q-1 -10 -2.5 -12.5t-8.5 -2.5h-23q-6 0 -7.5 3t-0.5 12l22 324q0 5 3.5 6.5t7 0t5.5 -4.5l138 -195l138 197q2 3 5 4t5.5 -2t2.5 -9zM282 647q0 -9 -10 -9h-102
v-293q0 -8 -1.5 -9.5t-7.5 -1.5h-23q-6 0 -7.5 2t-1.5 9v293h-104q-8 0 -8 11v19q0 7 1.5 8.5t7.5 1.5h247q5 0 7 -1.5t2 -7.5v-22z" />
    <glyph glyph-name="partialdiff" unicode="&#x2202;" 
d="M793 300q0 -154 -109.5 -263.5t-263.5 -109.5t-263.5 109.5t-109.5 263.5t109.5 263.5t263.5 109.5t263.5 -109.5t109.5 -263.5zM693 491l-48 -29l-9 78l-65 -109l-127 53l23 54l40 40l-103 33l-106 -73l82 -13l2 -49l-107 -51l-100 97l9 -104l-48 33l73 -189l193 38
l-127 -224l21 -51l48 24l67 220l-26 -218l46 -36l36 41l-25 215l63 -209l57 -9l16 43l-129 206l193 -22zM478 573l-32 -35l-35 -68l-13 48l12 17l-68 11l26 13l17 -5l-1 19l28 19zM658 436l-30 -128l-35 38l-38 -26l-28 30l-31 -20l-45 40l-35 -47l-52 44l-22 -53l-37 28
l-12 -35l-38 29l-34 -39l-38 91l33 -14l11 58l38 -48l128 53l21 -52l16 62l148 -56l47 59l8 -40zM559 94l-32 -18l-30 100zM448 53l-40 1l18 142zM353 160l-28 -107l-29 17z" />
    <glyph glyph-name="product" unicode="&#x220f;" 
d="M793 300q0 -154 -109.5 -263.5t-263.5 -109.5t-263.5 109.5t-109.5 263.5t109.5 263.5t263.5 109.5t263.5 -109.5t109.5 -263.5zM693 491l-48 -29l-9 78l-65 -109l-127 53l23 54l40 40l-103 33l-106 -73l82 -13l2 -49l-107 -51l-100 97l9 -104l-48 33l73 -189l193 38
l-127 -224l21 -51l48 24l67 220l-26 -218l46 -36l36 41l-25 215l63 -209l57 -9l16 43l-129 206l193 -22zM478 573l-32 -35l-35 -68l-13 48l12 17l-68 11l26 13l17 -5l-1 19l28 19zM658 436l-30 -128l-35 38l-38 -26l-28 30l-31 -20l-45 40l-35 -47l-52 44l-22 -53l-37 28
l-12 -35l-38 29l-34 -39l-38 91l33 -14l11 58l38 -48l128 53l21 -52l16 62l148 -56l47 59l8 -40zM559 94l-32 -18l-30 100zM448 53l-40 1l18 142zM353 160l-28 -107l-29 17z" />
    <glyph glyph-name="summation" unicode="&#x2211;" 
d="M793 300q0 -154 -109.5 -263.5t-263.5 -109.5t-263.5 109.5t-109.5 263.5t109.5 263.5t263.5 109.5t263.5 -109.5t109.5 -263.5zM693 491l-48 -29l-9 78l-65 -109l-127 53l23 54l40 40l-103 33l-106 -73l82 -13l2 -49l-107 -51l-100 97l9 -104l-48 33l73 -189l193 38
l-127 -224l21 -51l48 24l67 220l-26 -218l46 -36l36 41l-25 215l63 -209l57 -9l16 43l-129 206l193 -22zM478 573l-32 -35l-35 -68l-13 48l12 17l-68 11l26 13l17 -5l-1 19l28 19zM658 436l-30 -128l-35 38l-38 -26l-28 30l-31 -20l-45 40l-35 -47l-52 44l-22 -53l-37 28
l-12 -35l-38 29l-34 -39l-38 91l33 -14l11 58l38 -48l128 53l21 -52l16 62l148 -56l47 59l8 -40zM559 94l-32 -18l-30 100zM448 53l-40 1l18 142zM353 160l-28 -107l-29 17z" />
    <glyph glyph-name="minus" unicode="&#x2212;" 
d="M793 300q0 -154 -109.5 -263.5t-263.5 -109.5t-263.5 109.5t-109.5 263.5t109.5 263.5t263.5 109.5t263.5 -109.5t109.5 -263.5zM693 491l-48 -29l-9 78l-65 -109l-127 53l23 54l40 40l-103 33l-106 -73l82 -13l2 -49l-107 -51l-100 97l9 -104l-48 33l73 -189l193 38
l-127 -224l21 -51l48 24l67 220l-26 -218l46 -36l36 41l-25 215l63 -209l57 -9l16 43l-129 206l193 -22zM478 573l-32 -35l-35 -68l-13 48l12 17l-68 11l26 13l17 -5l-1 19l28 19zM658 436l-30 -128l-35 38l-38 -26l-28 30l-31 -20l-45 40l-35 -47l-52 44l-22 -53l-37 28
l-12 -35l-38 29l-34 -39l-38 91l33 -14l11 58l38 -48l128 53l21 -52l16 62l148 -56l47 59l8 -40zM559 94l-32 -18l-30 100zM448 53l-40 1l18 142zM353 160l-28 -107l-29 17z" />
    <glyph glyph-name="radical" unicode="&#x221a;" horiz-adv-x="574" 
d="M625 678q-83 -147 -169 -342t-131 -353q-6 -18 -20 -11q-2 1 -6 2.5t-6 2t-4.5 1.5t-3.5 2t-3 2.5t-2.5 3t-1.5 3.5t-1 4q-17 101 -94.5 202.5t-143.5 101.5q-10 0 -13 4q-2 4 1 14t16 31q4 6 7.5 7t15.5 -3q78 -29 150 -121t94 -185q27 115 118 334.5t149 321.5
q9 16 19 12q11 -4 28 -13q6 -4 6 -7.5t-5 -13.5z" />
    <glyph glyph-name="infinity" unicode="&#x221e;" horiz-adv-x="678" 
d="M610 581q0 -8 -9 -8h-42q-6 0 -6 7v45q0 5 7 5h40q10 0 10 -8v-41zM607 10q0 -10 -9 -10h-32q-7 0 -8.5 2.5t-1.5 10.5v484q0 8 8 8h33q7 0 8.5 -1t1.5 -7v-487zM506 678q3 -3 -2 -11q-4 -6 -20 -29q-4 -5 -8 -1q-22 22 -55 22q-67 0 -67 -85v-63q0 -6 8 -6h98q5 0 5 -3
v-40q0 -6 -7 -6h-104v-449q0 -7 -9 -7h-37q-5 0 -5 8v448h-54q-5 0 -5 8v38q0 3 5 3h54v72q0 60 34 96t87 36q51 0 82 -31zM271 678q3 -3 -2 -11q-9 -15 -20 -29q-4 -5 -8 -1q-22 22 -55 22q-67 0 -67 -85v-63q0 -6 8 -6h98q5 0 5 -3v-40q0 -6 -7 -6h-104v-449q0 -7 -9 -7
h-37q-5 0 -5 8v448h-54q-5 0 -5 8v38q0 3 5 3h54v72q0 60 34 96t87 36q51 0 82 -31z" />
    <glyph glyph-name="integral" unicode="&#x222b;" 
d="M793 300q0 -154 -109.5 -263.5t-263.5 -109.5t-263.5 109.5t-109.5 263.5t109.5 263.5t263.5 109.5t263.5 -109.5t109.5 -263.5zM693 491l-48 -29l-9 78l-65 -109l-127 53l23 54l40 40l-103 33l-106 -73l82 -13l2 -49l-107 -51l-100 97l9 -104l-48 33l73 -189l193 38
l-127 -224l21 -51l48 24l67 220l-26 -218l46 -36l36 41l-25 215l63 -209l57 -9l16 43l-129 206l193 -22zM478 573l-32 -35l-35 -68l-13 48l12 17l-68 11l26 13l17 -5l-1 19l28 19zM658 436l-30 -128l-35 38l-38 -26l-28 30l-31 -20l-45 40l-35 -47l-52 44l-22 -53l-37 28
l-12 -35l-38 29l-34 -39l-38 91l33 -14l11 58l38 -48l128 53l21 -52l16 62l148 -56l47 59l8 -40zM559 94l-32 -18l-30 100zM448 53l-40 1l18 142zM353 160l-28 -107l-29 17z" />
    <glyph glyph-name="approxequal" unicode="&#x2248;" 
d="M793 300q0 -154 -109.5 -263.5t-263.5 -109.5t-263.5 109.5t-109.5 263.5t109.5 263.5t263.5 109.5t263.5 -109.5t109.5 -263.5zM693 491l-48 -29l-9 78l-65 -109l-127 53l23 54l40 40l-103 33l-106 -73l82 -13l2 -49l-107 -51l-100 97l9 -104l-48 33l73 -189l193 38
l-127 -224l21 -51l48 24l67 220l-26 -218l46 -36l36 41l-25 215l63 -209l57 -9l16 43l-129 206l193 -22zM478 573l-32 -35l-35 -68l-13 48l12 17l-68 11l26 13l17 -5l-1 19l28 19zM658 436l-30 -128l-35 38l-38 -26l-28 30l-31 -20l-45 40l-35 -47l-52 44l-22 -53l-37 28
l-12 -35l-38 29l-34 -39l-38 91l33 -14l11 58l38 -48l128 53l21 -52l16 62l148 -56l47 59l8 -40zM559 94l-32 -18l-30 100zM448 53l-40 1l18 142zM353 160l-28 -107l-29 17z" />
    <glyph glyph-name="notequal" unicode="&#x2260;" horiz-adv-x="470" 
d="M506 678q3 -3 -2 -11q-5 -9 -20 -29q-4 -5 -8 -1q-22 22 -55 22q-67 0 -67 -85v-63q0 -6 8 -6h98q5 0 5 -3v-40q0 -6 -7 -6h-104v-449q0 -7 -9 -7h-37q-5 0 -5 8v448h-54q-5 0 -5 8v38q0 3 5 3h54v72q0 60 34 96t87 36q51 0 82 -31zM271 678q3 -3 -2 -11q-7 -12 -20 -29
q-4 -5 -8 -1q-22 22 -55 22q-67 0 -67 -85v-63q0 -6 8 -6h98q5 0 5 -3v-40q0 -6 -7 -6h-104v-449q0 -7 -9 -7h-37q-5 0 -5 8v448h-54q-5 0 -5 8v38q0 3 5 3h54v72q0 60 34 96t87 36q51 0 82 -31z" />
    <glyph glyph-name="lessequal" unicode="&#x2264;" 
d="M793 300q0 -154 -109.5 -263.5t-263.5 -109.5t-263.5 109.5t-109.5 263.5t109.5 263.5t263.5 109.5t263.5 -109.5t109.5 -263.5zM693 491l-48 -29l-9 78l-65 -109l-127 53l23 54l40 40l-103 33l-106 -73l82 -13l2 -49l-107 -51l-100 97l9 -104l-48 33l73 -189l193 38
l-127 -224l21 -51l48 24l67 220l-26 -218l46 -36l36 41l-25 215l63 -209l57 -9l16 43l-129 206l193 -22zM478 573l-32 -35l-35 -68l-13 48l12 17l-68 11l26 13l17 -5l-1 19l28 19zM658 436l-30 -128l-35 38l-38 -26l-28 30l-31 -20l-45 40l-35 -47l-52 44l-22 -53l-37 28
l-12 -35l-38 29l-34 -39l-38 91l33 -14l11 58l38 -48l128 53l21 -52l16 62l148 -56l47 59l8 -40zM559 94l-32 -18l-30 100zM448 53l-40 1l18 142zM353 160l-28 -107l-29 17z" />
    <glyph glyph-name="greaterequal" unicode="&#x2265;" 
d="M793 300q0 -154 -109.5 -263.5t-263.5 -109.5t-263.5 109.5t-109.5 263.5t109.5 263.5t263.5 109.5t263.5 -109.5t109.5 -263.5zM693 491l-48 -29l-9 78l-65 -109l-127 53l23 54l40 40l-103 33l-106 -73l82 -13l2 -49l-107 -51l-100 97l9 -104l-48 33l73 -189l193 38
l-127 -224l21 -51l48 24l67 220l-26 -218l46 -36l36 41l-25 215l63 -209l57 -9l16 43l-129 206l193 -22zM478 573l-32 -35l-35 -68l-13 48l12 17l-68 11l26 13l17 -5l-1 19l28 19zM658 436l-30 -128l-35 38l-38 -26l-28 30l-31 -20l-45 40l-35 -47l-52 44l-22 -53l-37 28
l-12 -35l-38 29l-34 -39l-38 91l33 -14l11 58l38 -48l128 53l21 -52l16 62l148 -56l47 59l8 -40zM559 94l-32 -18l-30 100zM448 53l-40 1l18 142zM353 160l-28 -107l-29 17z" />
    <glyph glyph-name="lozenge" unicode="&#x25ca;" 
d="M793 300q0 -154 -109.5 -263.5t-263.5 -109.5t-263.5 109.5t-109.5 263.5t109.5 263.5t263.5 109.5t263.5 -109.5t109.5 -263.5zM693 491l-48 -29l-9 78l-65 -109l-127 53l23 54l40 40l-103 33l-106 -73l82 -13l2 -49l-107 -51l-100 97l9 -104l-48 33l73 -189l193 38
l-127 -224l21 -51l48 24l67 220l-26 -218l46 -36l36 41l-25 215l63 -209l57 -9l16 43l-129 206l193 -22zM478 573l-32 -35l-35 -68l-13 48l12 17l-68 11l26 13l17 -5l-1 19l28 19zM658 436l-30 -128l-35 38l-38 -26l-28 30l-31 -20l-45 40l-35 -47l-52 44l-22 -53l-37 28
l-12 -35l-38 29l-34 -39l-38 91l33 -14l11 58l38 -48l128 53l21 -52l16 62l148 -56l47 59l8 -40zM559 94l-32 -18l-30 100zM448 53l-40 1l18 142zM353 160l-28 -107l-29 17z" />
    <glyph glyph-name="apple" unicode="&#xf8ff;" 
d="M793 300q0 -154 -109.5 -263.5t-263.5 -109.5t-263.5 109.5t-109.5 263.5t109.5 263.5t263.5 109.5t263.5 -109.5t109.5 -263.5zM693 491l-48 -29l-9 78l-65 -109l-127 53l23 54l40 40l-103 33l-106 -73l82 -13l2 -49l-107 -51l-100 97l9 -104l-48 33l73 -189l193 38
l-127 -224l21 -51l48 24l67 220l-26 -218l46 -36l36 41l-25 215l63 -209l57 -9l16 43l-129 206l193 -22zM478 573l-32 -35l-35 -68l-13 48l12 17l-68 11l26 13l17 -5l-1 19l28 19zM658 436l-30 -128l-35 38l-38 -26l-28 30l-31 -20l-45 40l-35 -47l-52 44l-22 -53l-37 28
l-12 -35l-38 29l-34 -39l-38 91l33 -14l11 58l38 -48l128 53l21 -52l16 62l148 -56l47 59l8 -40zM559 94l-32 -18l-30 100zM448 53l-40 1l18 142zM353 160l-28 -107l-29 17z" />
    <glyph glyph-name="fi" unicode="&#xfb01;" horiz-adv-x="442" 
d="M375 581q0 -8 -9 -8h-42q-6 0 -6 7v45q0 5 7 5h40q10 0 10 -8v-41zM372 10q0 -10 -9 -10h-32q-7 0 -8.5 2t-1.5 11v484q0 8 8 8h33q8 0 9 -1t1 -7v-487zM271 678q3 -3 -2 -11q-9 -15 -20 -29q-4 -5 -8 -1q-22 22 -55 22q-67 0 -67 -85v-63q0 -6 8 -6h98q5 0 5 -5v-38
q0 -6 -7 -6h-104v-449q0 -7 -7 -7h-39q-5 0 -5 8v448h-54q-5 0 -5 8v38q0 3 5 3h54v72q0 60 34 96t87 36q51 0 82 -31z" />
    <glyph glyph-name="fl" unicode="&#xfb02;" horiz-adv-x="442" 
d="M372 10q0 -10 -8 -10h-35q-8 0 -8 13v670q0 7 1.5 8t8.5 1h32q4 0 5.5 -0.5t2.5 -2.5t1 -6v-673zM271 678q3 -3 -2 -11q-9 -15 -20 -29q-4 -5 -8 -1q-22 22 -55 22q-67 0 -67 -85v-63q0 -6 8 -6h98q5 0 5 -6v-37q0 -6 -7 -6h-104v-449q0 -7 -6 -7h-40q-5 0 -5 8v448h-54
q-5 0 -5 8v35q0 6 5 6h54v72q0 60 34 96t87 36q51 0 82 -31z" />
    <glyph glyph-name="NUL" horiz-adv-x="0" 
 />
    </font>
</defs>
</svg>
